<?xml version="1.0" encoding="UTF-8" standalone="no"?>
<svg xmlns="http://www.w3.org/2000/svg" xmlns:xlink="http://www.w3.org/1999/xlink" xmlns:serif="http://www.serif.com/" width="100%" height="100%" viewBox="0 0 1818 337" version="1.1" xml:space="preserve" style="fill-rule:evenodd;clip-rule:evenodd;stroke-linejoin:round;stroke-miterlimit:2;">
    <g transform="matrix(1,0,0,1,-9899,-2084)">
        <g transform="matrix(8.9349,0,0,9.62517,3577.35,-1176.71)">
            <g transform="matrix(0.339331,0,0,0.313084,676.059,285.057)">
                <path d="M225.308,265.004L225.308,188.892L243.317,188.892L273.548,241.42L273.548,188.892L289.842,188.892L289.842,265.004L271.618,265.004L241.602,214.298L241.602,265.004L225.308,265.004Z" style="fill:white;fill-rule:nonzero;"></path>
                <path d="M299.061,265.004L299.061,207.545L315.141,207.545L315.141,265.004L299.061,265.004ZM298.74,200.47L298.74,187.606L315.356,187.606L315.356,200.47L298.74,200.47Z" style="fill:white;fill-rule:nonzero;"></path>
                <path d="M325.647,265.004L325.647,207.545L340.119,207.545L340.655,221.374L339.154,220.73C339.94,217.657 341.137,215.049 342.745,212.905C344.354,210.761 346.301,209.117 348.588,207.974C350.875,206.83 353.376,206.258 356.092,206.258C360.88,206.258 364.757,207.652 367.723,210.439C370.689,213.226 372.601,216.978 373.458,221.695L371.422,221.802C372.065,218.443 373.19,215.603 374.798,213.28C376.406,210.957 378.39,209.206 380.748,208.027C383.106,206.848 385.751,206.258 388.681,206.258C392.683,206.258 396.113,207.08 398.972,208.724C401.831,210.368 404.046,212.815 405.618,216.067C407.191,219.319 407.977,223.303 407.977,228.02L407.977,265.004L391.897,265.004L391.897,232.522C391.897,228.02 391.218,224.643 389.86,222.392C388.502,220.141 386.287,219.015 383.214,219.015C381.284,219.015 379.64,219.551 378.282,220.623C376.925,221.695 375.87,223.25 375.12,225.286C374.37,227.323 373.994,229.807 373.994,232.737L373.994,265.004L359.522,265.004L359.522,232.737C359.522,228.306 358.879,224.911 357.593,222.553C356.306,220.194 354.091,219.015 350.946,219.015C349.017,219.015 347.355,219.551 345.962,220.623C344.568,221.695 343.514,223.267 342.799,225.34C342.084,227.413 341.727,229.878 341.727,232.737L341.727,265.004L325.647,265.004Z" style="fill:white;fill-rule:nonzero;"></path>
                <path d="M449.892,266.291C445.89,266.291 442.406,265.433 439.44,263.718C436.474,262.003 434.169,259.608 432.526,256.535L432.204,265.004L416.874,265.004L416.874,188.892L432.955,188.892L432.955,215.692C434.455,213.048 436.671,210.814 439.601,208.992C442.531,207.17 445.961,206.258 449.892,206.258C454.752,206.258 458.968,207.491 462.542,209.957C466.115,212.422 468.884,215.906 470.85,220.409C472.815,224.911 473.798,230.2 473.798,236.274C473.798,242.349 472.815,247.638 470.85,252.14C468.884,256.643 466.115,260.127 462.542,262.592C458.968,265.058 454.752,266.291 449.892,266.291ZM445.39,253.962C448.963,253.962 451.84,252.408 454.019,249.299C456.199,246.19 457.289,241.849 457.289,236.274C457.289,230.7 456.217,226.358 454.073,223.25C451.929,220.141 449.07,218.586 445.497,218.586C442.853,218.586 440.584,219.283 438.69,220.677C436.796,222.07 435.367,224.089 434.402,226.734C433.437,229.378 432.955,232.558 432.955,236.274C432.955,239.919 433.437,243.064 434.402,245.708C435.367,248.352 436.796,250.389 438.69,251.818C440.584,253.248 442.817,253.962 445.39,253.962Z" style="fill:white;fill-rule:nonzero;"></path>
                <path d="M483.553,265.004L483.553,206.794C483.553,201.077 485.09,196.664 488.163,193.555C491.236,190.446 496.024,188.892 502.527,188.892L514.748,188.892L514.748,200.898L505.958,200.898C503.742,200.898 502.134,201.452 501.134,202.56C500.133,203.668 499.633,205.329 499.633,207.545L499.633,265.004L483.553,265.004ZM475.191,221.695L475.191,209.689L513.891,209.689L513.891,221.695L475.191,221.695ZM538.547,265.004C533.83,265.004 530.149,263.825 527.505,261.467C524.861,259.108 523.539,255.285 523.539,249.996L523.539,188.892L539.619,188.892L539.619,248.281C539.619,249.996 540.012,251.211 540.798,251.926C541.584,252.64 542.728,252.998 544.228,252.998L548.088,252.998L548.088,265.004L538.547,265.004Z" style="fill:white;fill-rule:nonzero;"></path>
                <path d="M577.782,266.291C571.922,266.291 566.812,265.058 562.452,262.592C558.093,260.127 554.698,256.643 552.268,252.14C549.839,247.638 548.624,242.349 548.624,236.274C548.624,230.2 549.839,224.929 552.268,220.462C554.698,215.996 558.093,212.512 562.452,210.01C566.812,207.509 571.922,206.258 577.782,206.258C583.642,206.258 588.752,207.509 593.112,210.01C597.471,212.512 600.866,215.996 603.296,220.462C605.726,224.929 606.941,230.2 606.941,236.274C606.941,242.349 605.726,247.638 603.296,252.14C600.866,256.643 597.471,260.127 593.112,262.592C588.752,265.058 583.642,266.291 577.782,266.291ZM577.782,253.962C581.784,253.962 584.893,252.408 587.108,249.299C589.324,246.19 590.432,241.849 590.432,236.274C590.432,230.7 589.324,226.358 587.108,223.25C584.893,220.141 581.784,218.586 577.782,218.586C573.78,218.586 570.671,220.141 568.456,223.25C566.24,226.358 565.132,230.7 565.132,236.274C565.132,241.849 566.24,246.19 568.456,249.299C570.671,252.408 573.78,253.962 577.782,253.962Z" style="fill:white;fill-rule:nonzero;"></path>
                <path d="M622.806,265.004L605.761,207.545L621.949,207.545L631.811,246.458L642.424,207.545L655.502,207.545L666.115,246.458L676.085,207.545L692.272,207.545L675.227,265.004L659.576,265.004L648.963,229.092L638.35,265.004L622.806,265.004Z" style="fill:white;fill-rule:nonzero;"></path>
            </g>
            <g transform="matrix(2.58405,0,0,2.58405,-1353.8,-581.742)">
                <g transform="matrix(0.165676,0,0,0.115089,686.47,277.469)">
                    <path d="M697.694,760.025L697.694,775.319C697.694,779.54 695.13,782.966 691.971,782.966L677.371,782.966C674.213,782.966 671.649,779.54 671.649,775.319L671.649,760.025C671.649,755.805 674.213,752.378 677.371,752.378L691.971,752.378C695.13,752.378 697.694,755.805 697.694,760.025Z" style="fill:white;"></path>
                </g>
                <g transform="matrix(0.165676,0,0,0.115089,696.412,277.469)">
                    <path d="M697.694,760.025L697.694,775.319C697.694,779.54 695.13,782.966 691.971,782.966L677.371,782.966C674.213,782.966 671.649,779.54 671.649,775.319L671.649,760.025C671.649,755.805 674.213,752.378 677.371,752.378L691.971,752.378C695.13,752.378 697.694,755.805 697.694,760.025Z" style="fill:white;"></path>
                </g>
                <g transform="matrix(0.165676,0,0,0.141136,691.427,259.234)">
                    <path d="M697.694,759.473L697.694,775.871C697.694,779.787 694.776,782.966 691.183,782.966L678.16,782.966C674.566,782.966 671.649,779.787 671.649,775.871L671.649,759.473C671.649,755.557 674.566,752.378 678.16,752.378L691.183,752.378C694.776,752.378 697.694,755.557 697.694,759.473Z" style="fill:white;"></path>
                </g>
                <g transform="matrix(0.165676,0,0,0.144679,686.47,250.238)">
                    <path d="M697.694,759.3L697.694,776.045C697.694,779.865 694.776,782.966 691.183,782.966L678.16,782.966C674.566,782.966 671.649,779.865 671.649,776.045L671.649,759.3C671.649,755.48 674.566,752.378 678.16,752.378L691.183,752.378C694.776,752.378 697.694,755.48 697.694,759.3Z" style="fill:white;"></path>
                </g>
                <g transform="matrix(0.165676,0,0,0.144679,696.412,250.238)">
                    <path d="M697.694,759.3L697.694,776.045C697.694,779.865 694.776,782.966 691.183,782.966L678.16,782.966C674.566,782.966 671.649,779.865 671.649,776.045L671.649,759.3C671.649,755.48 674.566,752.378 678.16,752.378L691.183,752.378C694.776,752.378 697.694,755.48 697.694,759.3Z" style="fill:white;"></path>
                </g>
                <g transform="matrix(-0.165481,-0.000719403,0.00139392,-0.276296,917.104,573.064)">
                    <path d="M697.694,755.998L697.694,779.346C697.694,781.344 694.776,782.966 691.183,782.966L678.16,782.966C674.566,782.966 671.649,781.344 671.649,779.346L671.649,755.998C671.649,754 674.566,752.378 678.16,752.378L691.183,752.378C694.776,752.378 697.694,754 697.694,755.998Z" style="fill:white;"></path>
                </g>
            </g>
        </g>
    </g>
</svg>
