<?xml version="1.0" encoding="UTF-8"?>
<svg xmlns="http://www.w3.org/2000/svg" id="Layer_1" data-name="Layer 1" viewBox="0 0 1280 215.12">
  <defs>
    <style>
      .cls-1 {
        fill: #fff;
      }
    </style>
  </defs>
  <g>
    <g>
      <path class="cls-1" d="M0,120.1c.28-.37,.64-.32,.97-.13,1.23,.7,2.42,.7,3.66-.02,.65-.38,1.4-.28,2.01,.17,.63,.46,1.2,1,1.79,1.51,.18,.15,.35,.31,.51,.46,.87-.79,.96-2.32,.21-3.15-2.25-2.46-4.51-4.91-6.76-7.36-.44-.48-.91-.95-1.35-1.43-1-1.07-.8-2.22,.51-2.89,.02,0,.03-.02,.05-.03,.91-.46,.88-.47,.54-1.46-.38-1.12-.66-2.27-.99-3.4-.02-.09-.03-.18-.04-.27-.08-1.09,.17-1.41,1.24-1.59,.09-.01,.2,0,.27-.03,.29-.17,.72-.3,.82-.56,.3-.73,.73-1.21,1.48-1.47,.11-.04,.2-.49,.12-.69-.47-1.22-1.04-2.41-1.49-3.64-.28-.76-.48-1.56-.6-2.36-.09-.62,.18-1.16,.74-1.54,.21-.14,.43-.47,.43-.7-.04-1.75-.05-3.51-.23-5.25-.17-1.64-.54-3.26-.82-4.89-.03-.16-.05-.36,.02-.48,.16-.28,.32-.66,.57-.77,.39-.16,.5,.29,.66,.57,.41,.67,.81,1.34,1.24,2,.42,.64,1.08,.94,1.8,.99,.25,.02,.62-.28,.76-.54,.45-.81,.8-1.68,1.22-2.5,.12-.24,.38-.58,.58-.58,.44,0,.66,.39,.72,.83,.05,.45,.06,.91,.13,1.36,.28,1.63,.51,1.75,1.98,1.04,.18-.09,.36-.17,.55-.25,.84-.34,1.16-.14,1.16,.76,0,.64-.03,1.28-.03,1.92,0,.96,.04,1.03,.96,1.29,.62,.18,.98,.6,1.14,1.21,.22,.85,.19,1.7-.14,2.53-.1,.25-.21,.51-.27,.77-.22,.94-.06,1.28,.8,1.71,.94,.48,1.28,1.25,.89,2.29-.41,1.11-.84,2.23-1.42,3.25-.6,1.07-.72,2.11-.36,3.25,.48,1.51,.33,2.89-.86,4.04-.1,.1-.17,.23-.26,.35-.7,.97-.61,1.29,.26,2.12,.55,.53,.99,1.2,1.42,1.85,.58,.86,1.11,1.11,2.12,.9,.3-.06,.6-.14,.91-.18,.66-.08,.86,.15,.65,.77-.22,.66-.5,1.29-.74,1.94-.47,1.26-.09,2.16,1.12,2.73,.87,.41,.97,.57,.76,1.52-.08,.38-.26,.76-.47,1.09-2.05,3.25-3.36,6.72-3.07,10.63,.06,.88,.28,1.76,.54,2.61,.25,.81,.82,1.01,1.59,.65,.54-.25,1.07-.54,1.6-.81,.88-.44,1.29-.25,1.42,.73,.08,.59,.06,1.2,.06,1.81,.01,1.77,1.72,3.18,3.41,2.72,.62-.17,1.2-.57,1.75-.94,.44-.3,.62-.8,.59-1.35-.08-1.24-.18-2.48-.23-3.72-.01-.28,.14-.56,.21-.85,.28,.09,.6,.12,.83,.28,.49,.34,.91,.78,1.4,1.13,.49,.34,1,.66,1.54,.92,.91,.42,1.79,.34,2.63-.24,.25-.17,.53-.34,.81-.43,.81-.26,1.25,.07,1.19,.92-.07,1-.25,2-.3,3-.08,1.68-.15,3.36-.13,5.04,.03,2.06,.12,4.12,.25,6.18,.03,.54,.32,1.07,.5,1.6,.18,.53,.46,1.04,.54,1.59,.26,1.77,1.08,3.18,2.54,4.17,1.37,.93,2.75,1.85,4.19,2.65,2.03,1.12,4.24,1.46,6.54,1.08,1.09-.18,1.75-1.03,1.69-2.02-.02-.38-.18-.6-.57-.57-.52,.04-1.04,.11-1.56,.18-.21,.03-.43,.09-.64,.09-.79,0-1.13-.27-1.1-.87,.03-.62,.58-1.1,1.22-1.07,.13,0,.25,.08,.37,.06,.18-.02,.35-.08,.52-.13-.05-.18-.05-.4-.15-.54-.09-.13-.29-.28-.44-.28-.7,0-1.43-.04-2.1,.13-.71,.18-1.38,.55-2.05,.87-.37,.17-.72,.31-1.04-.05-.31-.36-.19-.75,.06-1.05,.37-.44,.8-.84,1.22-1.24,.57-.54,.43-1.26-.33-1.51-.27-.09-.57-.11-.86-.13-1.08-.09-2.03-.52-2.9-1.15-.4-.29-.41-.68,.04-.91,.44-.23,.95-.33,1.44-.45,.42-.1,.86-.14,1.29-.21,.54-.08,.87-.39,.93-.92,.07-.63,.07-1.27,.1-1.91,.01-.29-.02-.59,0-.88,.04-.76,.42-.98,1.08-.58,.39,.23,.72,.55,1.09,.82,1.28,.93,2.12,.87,3.21-.26,.71-.73,1.37-1.52,2.08-2.24,1.13-1.14,2.47-.8,2.97,.73,.27,.8,.62,.93,1.17,.27,.73-.88,1.39-1.82,2.03-2.77,.54-.8,1-1.65,1.5-2.48,.48-.79,.94-.87,1.67-.28,.32,.26,.64,.31,.99,.07,.12-.08,.24-.21,.37-.22,.49-.02,1.04-.11,1.45,.07,.21,.09,.29,.76,.22,1.12-.27,1.39-.34,2.75,.19,4.1,.21,.53,.46,.93,1.02,1.19,.8,.37,1.01,1.21,1.08,1.98,.08,.95,.46,1.28,1.56,1.09,.69-.12,1.21-.52,1.54-1.12,.83-1.55,1.04-3.13-.02-4.65-.57-.82-1.24-1.57-1.89-2.33-1.34-1.58-2.38-3.33-2.72-5.4-.16-.98-.08-2-.05-3,0-.31,.14-.64,.28-.93,.59-1.19,1.6-1.36,2.56-.44,.73,.7,.96,1.61,1.05,2.58,.14,1.43,.42,2.82,1.01,4.13,.81,1.79,2.11,2.85,4.17,2.72,2.14-.13,4.27-.34,6.41-.38,3.99-.07,7.99-.39,11.94,.47,.92,.2,1.83,.46,2.72,.76,.95,.32,1.89,.31,2.84,.07,.95-.25,1.91-.45,2.84-.76,2.39-.8,4.87-.95,7.35-1.01,3.35-.08,6.67,.11,9.99,.63,1.82,.28,3.51-.28,4.92-1.45,.49-.41,.92-1.02,1.13-1.63,.55-1.58,.97-3.2,1.45-4.81,.13-.45,.26-.91,.44-1.35,.3-.73,.89-.95,1.6-.62,1.28,.59,1.83,1.64,1.74,3.01-.04,.76-.15,1.54-.38,2.26-.63,2.01-1.64,3.81-3.17,5.29-.25,.24-.48,.5-.73,.73-.6,.57-1.13,1.15-1.24,2.05-.16,1.31-.19,2.59,.43,3.8,.35,.67,2,1.35,2.67,1.05,.25-.11,.55-.45,.57-.69,.05-1.12,.52-2.03,1.3-2.75,1.33-1.23,1.69-2.71,1.36-4.43-.08-.41-.12-.83-.11-1.25,.02-.73,.33-.98,1.06-.86,.09,.01,.19,.02,.26,.07,.7,.47,1.34,.57,2.01-.13,.32-.33,.74-.12,1.03,.43,.38,.73,.68,1.5,1.1,2.2,.64,1.08,1.31,2.15,2.03,3.17,.54,.77,.93,.75,1.57,.06,.3-.32,.57-.66,.87-.98,.56-.59,1.21-.72,1.93-.33,.39,.21,.74,.52,1.06,.84,.53,.55,.99,1.17,1.53,1.71,1.01,1,2.02,1,3.09,.08,.43-.37,.84-.76,1.28-1.1,.17-.13,.47-.23,.62-.16,.15,.06,.27,.38,.26,.58-.03,.86-.09,1.71-.18,2.56-.13,1.12,.06,1.44,1.16,1.71,.42,.1,.86,.15,1.28,.24,.64,.13,.93,.44,.94,.95,0,.57-.27,.89-.91,1.05-.92,.22-1.84,.43-2.75,.65-.61,.15-.73,.38-.39,.92,.24,.38,.57,.71,.84,1.07,.35,.46,.73,.91,1.02,1.41,.26,.46-.01,.81-.53,.71-.3-.06-.58-.19-.86-.31-.9-.42-1.74-1-2.8-.96-.62,.02-1.22,.29-1.64,.77,.21,.08,.4,.16,.58,.23,.45,.17,.94,.3,1.35,.53,.18,.1,.35,.46,.3,.65-.05,.19-.36,.43-.58,.44-.7,.05-1.41,0-2.12,.01-1.01,0-1.3,.47-.92,1.41,.44,1.09,1.47,1.65,2.97,1.37,4.04-.75,7.71-2.28,10.45-5.58,1.07-1.29,1.51-2.8,1.85-4.38,.55-2.59,.68-5.2,.42-7.84-.19-1.92-.15-3.87-.22-5.8-.02-.71-.07-1.42-.07-2.13,0-.87,.5-1.22,1.33-.97,.54,.16,1.07,.36,1.59,.57,1.04,.41,1.85,.14,2.57-.69,.49-.56,1.05-1.06,1.62-1.54,.19-.15,.58-.26,.76-.16,.18,.1,.3,.48,.29,.73-.02,.62-.11,1.24-.22,1.85-.49,2.85,1.89,5.07,4.51,4.19,1.34-.45,2.07-1.84,1.66-3.19-.13-.42-.31-.84,.08-1.22,.43-.42,.94-.61,1.54-.45,.58,.16,1.14,.37,1.72,.5,1.14,.24,1.7-.13,1.92-1.26,.55-2.84,.12-5.59-1.05-8.18-.72-1.58-1.72-3.03-2.58-4.55-.22-.39-.39-.83-.49-1.26-.11-.5,.17-.84,.71-1,1.59-.49,2.17-1.9,1.45-3.44-.2-.43-.32-.93-.36-1.41-.04-.54,.31-.8,.85-.7,.3,.06,.58,.19,.88,.28,.6,.17,.88,.03,1.13-.53,.08-.18,.16-.37,.22-.56,.34-1,.96-1.76,1.88-2.25,.47-.25,.59-.57,.41-1.08-.27-.81-.65-1.53-1.26-2.14-.99-.98-1.07-2.14-.3-3.27,.26-.37,.26-.75,.11-1.14-.58-1.52-1.11-3.05-1.77-4.53-.58-1.31-.55-2.41,.77-3.29,.19-.13,.33-.39,.4-.62,.27-.92,.34-1.83-.16-2.71-.04-.08-.07-.17-.1-.25-.48-1.34,.06-2.24,1.46-2.41,.7-.08,.68-.11,.49-.77-.14-.5-.22-1.04-.18-1.55,.09-1.03,.86-1.47,1.84-1.13,.22,.08,.44,.17,.66,.26,.65,.26,.85,.19,1.13-.48,.22-.52,.4-1.06,.63-1.58,.18-.42,.35-.85,.62-1.21,.16-.22,.51-.45,.73-.41,.23,.04,.49,.37,.58,.63,.15,.42,.15,.9,.25,1.34,.11,.49,.19,1.01,.41,1.45,.33,.66,.78,.75,1.31,.24,.6-.57,1.12-1.24,1.67-1.87,.3-.34,.55-.73,.89-1.03,.18-.15,.54-.26,.73-.18,.17,.08,.33,.44,.31,.67-.29,3.28-.07,6.62-1.07,9.83-.17,.54,0,.93,.51,1.16,.13,.06,.26,.13,.38,.21,1.07,.64,1.32,1.43,.76,2.54-.35,.7-.84,1.33-1.16,2.04-.42,.92-.74,1.89-1.09,2.85-.15,.42,.02,.71,.39,.9,.7,.35,1.29,.8,1.64,1.54,.06,.14,.37,.25,.54,.22,1.24-.23,1.77,.49,1.53,1.74-.12,.62-.36,1.23-.65,1.79-.47,.92-.41,1.88-.35,2.84,.01,.17,.26,.36,.45,.47,.14,.08,.35,.05,.53,.07,1.09,.11,1.51,.85,.96,1.83-.23,.42-.6,.77-.93,1.13-2.26,2.45-4.53,4.89-6.79,7.34-.4,.43-.83,.82-1.21,1.26-.55,.65-.74,1.37-.35,2.18,.26,.54,.56,.6,1.02,.22,.49-.41,.97-.82,1.49-1.18,.9-.62,1.84-.7,2.82-.15,1.09,.62,2.17,.4,3.24-.07,1.03-.45,1.13-.42,1.58,.59v.33c-.22,.43-.35,.94-.66,1.28-1.18,1.25-2.06,2.71-2.77,4.24-.59,1.27-.59,1.86,.42,2.48,.03,.02,.05,.05,.08,.08,.72,.73,.71,1.55-.11,2.15-.67,.49-1.41,.9-2.15,1.27-.86,.43-1.76,.77-2.63,1.18-.72,.35-1.43,.72-2.1,1.15-.25,.17-.37,.55-.55,.83,.26,.16,.51,.36,.79,.47,.47,.18,.98,.27,1.45,.46,.59,.24,.71,.79,.23,1.21-.43,.37-.94,.69-1.46,.93-.67,.32-1.38,.54-2.08,.79-3.08,1.09-5.96,2.57-8.74,4.29-.75,.46-1.25,1.08-1.38,1.99-.06,.42-.27,.82-.42,1.24-.1,.29-.25,.58-.29,.88-.12,.8,.24,1.13,1.03,.98,1.7-.31,3.39-.63,5.09-.91,.42-.07,.96-.24,1.22,.3,.25,.49-.11,.88-.38,1.23-.89,1.13-1.82,2.23-2.69,3.36-.17,.22-.34,.61-.25,.82,.32,.77-.01,1.23-.57,1.7-1.03,.85-2.21,1.38-3.43,1.87-.81,.33-1.62,.65-2.42,.97-.43,.17-.47,.4-.13,.72,.32,.3,.64,.6,.94,.92,.49,.52,.8,1.13,.77,1.87-.02,.64-.25,.81-.87,.63-.49-.15-.96-.34-1.45-.48-2.2-.63-4.47-.73-6.73-.86-.65-.04-1.08,.36-1.41,.87-.23,.36-.2,.65,.21,.85,.34,.17,.74,.41,.5,.8-.11,.18-.63,.13-.97,.15-.11,0-.23-.09-.35-.15-.69-.33-1.36-.71-2.07-.97-.57-.21-1.19-.33-1.79-.35-.26,0-.71,.28-.78,.52-.39,1.34-1.35,2.12-2.48,2.78-.53,.31-1.08,.61-1.57,.98-.73,.53-.72,.84-.02,1.39,1.08,.84,2.14,1.69,3.25,2.5,.68,.5,1.1,1.14,1.31,1.95,.19,.73-.09,1.08-.83,.89-.61-.16-1.21-.39-1.78-.67-1.44-.7-2.88-1.4-4.49-1.59-2.54-.31-5.08-.59-7.62-.87-3.22-.35-6.06-1.52-8.4-3.84-1.71-1.68-3.17-3.56-4.53-5.53-1.12-1.62-2.25-3.23-3.36-4.85-.53-.77-1.24-1.1-2.16-.91-.59,.12-.67,.35-.42,.89,.47,1.03,.94,2.05,1.33,3.11,.81,2.13,.99,4.35,.5,6.57-.24,1.09-.7,2.14-1.08,3.2-.05,.15-.27,.24-.41,.36-.06-.16-.15-.31-.17-.47-.02-.23,0-.47,.02-.71,.11-1.58-.35-2.95-1.45-4.1-.21-.22-.46-.42-.64-.67-1.44-2.06-2.9-4.11-4.29-6.2-.51-.77-1.17-1.23-2.03-1.43-.77-.18-1.24,.13-1.36,.92-.06,.38-.11,.76-.12,1.14-.02,.77-.34,1.32-1.06,1.63-.17,.07-.32,.2-.51,.32,.09,.12,.13,.21,.19,.26,1.2,.8,1.98,1.96,2.81,3.1,.99,1.36,2.05,2.64,3.53,3.53,.77,.46,.95,1.3,.4,2.1-.64,.94-1.36,1.85-2.16,2.65-.89,.9-1.53,.82-2.43-.08-.09-.09-.16-.2-.26-.28-.72-.55-1.37-1.22-2.17-1.61-1.61-.79-3.31-1.29-5.15-1.03-.3,.04-.74-.06-.94-.26-.29-.3-.53-.39-.9-.27-.33,.1-.68,.14-1,.26-1.41,.55-2.62,.19-3.75-.72-1.22-.98-2.02-2.27-2.73-3.64-.3-.57-.7-1.1-1.14-1.59-.44-.49-.87-.48-1.31,.01-.49,.56-.89,1.19-1.36,1.77-.79,.97-1.52,2.01-2.42,2.87-1.12,1.07-2.45,1.87-4.04,1.98-1.02,.07-2.07-.04-3.1-.12-1.18-.1-2.31,.04-3.4,.54-.46,.21-.96,.35-1.44,.54-.09,.04-.16,.13-.25,.19-.71,.5-1.39,1.05-2.13,1.49-.31,.18-.8,.23-1.16,.15-1.45-.34-2.72-1.03-3.57-2.32-.39-.6-.38-1,.04-1.56,.81-1.08,1.61-2.17,2.45-3.22,1.16-1.44,2.35-2.84,4.11-3.59,.38-.16,.38-.39,.05-.64-.85-.62-1.35-1.45-1.56-2.48-.1-.5-.3-.97-.48-1.45-.18-.48-.57-.68-1.04-.57-.34,.08-.72,.23-.96,.48-.51,.53-.99,1.11-1.39,1.73-1.14,1.8-2.13,3.71-3.39,5.42-1.3,1.77-2.1,3.64-2.19,5.84,0,.17-.2,.34-.3,.51-.16-.12-.39-.2-.46-.36-.29-.67-.58-1.34-.77-2.04-.74-2.71-.46-5.43,.06-8.14,.12-.63,.55-1.09,1.14-1.4,.17-.09,.37-.29,.38-.45,.05-.76,.07-1.53,.03-2.3-.02-.47-.41-.64-.77-.33-.46,.38-.87,.82-1.25,1.28-.33,.39-.63,.81-.88,1.25-.22,.38-.34,.82-.52,1.22-.12,.26-.23,.58-.45,.73-.51,.35-.93,.75-1.14,1.35-.05,.15-.17,.27-.27,.4-.48,.64-1.02,1.24-1.45,1.91-2.03,3.11-4.61,5.55-8.09,6.97-2.19,.9-4.38,1.55-6.78,1.57-3.28,.03-6.42,.82-9.43,2.17-.64,.29-1.34,.44-2.02,.6-.19,.04-.53-.05-.61-.19-.09-.18-.06-.51,.05-.7,.23-.39,.52-.75,.84-1.07,1.23-1.22,2.48-2.41,3.73-3.61,.2-.19,.38-.38,.06-.61-.97-.71-1.89-1.49-2.91-2.1-.84-.5-1.37-1.14-1.67-2.06-.06-.2-.33-.45-.52-.46-.82-.02-1.65,.04-2.29,.66-.37,.36-.78,.46-1.25,.28-.48-.18-.6-.6-.64-1.06-.09-1.06-.32-1.32-1.39-1.27-2.28,.11-4.56,.25-6.72,1.16-.59,.25-1.25,.35-1.89,.44-.19,.03-.52-.14-.61-.32-.5-.88,.02-2.53,.92-3.03,.22-.13,.43-.28,.74-.49-.36-.18-.59-.31-.83-.41-.74-.3-1.51-.55-2.22-.9-1.15-.58-2.29-1.18-3.38-1.86-.62-.38-.79-1-.44-1.51,.38-.56,.24-.95-.15-1.39-.98-1.1-1.96-2.21-2.89-3.35-.18-.22-.28-.64-.19-.88,.07-.19,.49-.36,.75-.35,1.03,.03,2.06,.1,3.09,.2,.96,.09,1.91,.24,2.86,.36,.67,.09,.81-.07,.68-.74-.08-.45-.2-.9-.2-1.35,0-.48-.18-.8-.54-1.07-2.01-1.51-4.1-2.89-6.33-4.05-1.53-.79-3.02-1.67-4.7-2.12-.49-.13-.97-.42-1.39-.72-.68-.49-.65-1.31,.04-1.77,.24-.16,.54-.23,.77-.39,.24-.16,.6-.38,.61-.59,.01-.26-.26-.55-.46-.79-.11-.13-.3-.19-.47-.27-1.32-.61-2.66-1.16-3.95-1.83-.85-.44-1.65-.99-2.4-1.58-.7-.55-.69-1.09-.1-1.79,.28-.34,.65-.62,.84-1,.2-.38,.39-.88,.31-1.27-.13-.59-.38-1.23-.79-1.65-1.25-1.29-2.15-2.79-2.86-4.42v-.77Zm83.13,27.01c.91,.1,1.78,.03,2.3-.85,.51-.87,1.21-1.54,2.04-2.09,.62-.42,1.27-.79,1.84-1.27,.5-.42,1-.91,1.34-1.47,.48-.78,.32-1.14-.47-1.6-1.3-.76-2.73-1.09-4.22-1.08-1.25,0-2.5,.16-3.75,.19-1.61,.03-3.22,0-4.83,0-.89,0-1.3,.5-.98,1.34,.34,.9,.76,1.76,1.14,2.65,.1,.23,.19,.48,.22,.72,.15,1.36,.64,2.61,1.18,3.85,.17,.39,.36,.49,.72,.19,.61-.5,1.32-.76,2.12-.71,.45,.03,.9,.08,1.35,.12Zm29.9-8.8c-.94,.11-1.98,.15-2.99,.37-.76,.17-1.51,.52-2.21,.88-.77,.4-.84,.96-.31,1.67,.1,.13,.2,.27,.32,.37,.76,.59,1.54,1.14,2.29,1.75,.81,.66,1.72,1.26,2.34,2.08,.65,.86,1.38,1.24,2.36,1.06,1.38-.26,2.66-.07,3.9,.59,.12,.06,.46-.04,.5-.15,.56-1.26,1.22-2.49,1.23-3.93,0-.35,.12-.71,.25-1.05,.3-.76,.67-1.5,.95-2.27,.36-1.01,.05-1.46-1.02-1.5-.57-.02-1.15,.1-1.73,.11-1.94,.02-3.87,0-5.9,0Zm-31.77,29.51c.07-.02,.28-.03,.46-.1,1.38-.55,2.75-1.11,4.12-1.68,.19-.08,.39-.22,.52-.38,1.33-1.52,3.03-2.54,4.78-3.46,1.3-.68,2.65-1.27,3.94-1.97,1.44-.79,1.59-1.32,1.04-2.85-.06-.17-.13-.34-.19-.51-.2-.52-.62-.73-1.13-.64-.36,.06-.72,.23-1.04,.42-.98,.59-1.92,1.24-2.91,1.8-.88,.5-1.85,.84-2.7,1.39-1.81,1.17-3.76,1.95-5.89,2.25-.72,.1-1.35,.37-1.78,.94-.47,.62-.93,1.27-1.25,1.97-.59,1.28,.49,2.84,2.03,2.83Zm20.15-9.6c0,.68,.3,1.14,.79,1.43,.79,.47,1.59,.96,2.44,1.31,2.32,.95,4.5,2.13,6.44,3.72,.76,.63,1.57,1.09,2.47,1.43,.88,.33,1.76,.69,2.63,1.04,1.1,.43,2.75-.75,2.71-1.95,0-.11-.01-.23-.05-.32-.79-1.76-1.76-3.28-3.95-3.47-1.88-.16-3.57-.87-5.17-1.88-.64-.4-1.37-.67-2.04-1.03-1.19-.65-2.4-1.28-3.55-1.99-1.15-.72-2.25-.34-2.6,.98-.07,.26-.1,.54-.13,.74Zm-53.38,5.62c.47,0,.95-.04,1.41,0,1.18,.11,2.16-.34,3.05-1.05,.95-.76,.84-2.12-.29-2.58-1.5-.62-3.03-1.21-4.6-1.61-1.27-.32-2.61-.38-3.93-.44-1.55-.07-3.1,1.3-3.36,2.83-.18,1.1,.53,2.01,1.83,2.3,1.94,.43,3.9,.61,5.88,.54Zm102.08-.67s.01-.05,.02-.07c.4-.03,.79-.04,1.19-.08,.81-.08,1.62-.23,2.43-.26,1.22-.04,2.36-.39,3.43-.94,.75-.38,1.05-1.3,.72-2.07-.69-1.6-1.88-2.57-3.64-2.58-3.04-.02-5.76,1.13-8.4,2.51-.44,.23-.59,.71-.45,1.19,.25,.9,.79,1.6,1.71,1.81,.98,.23,1.99,.33,2.99,.48Zm-68.69-12.92c-.6-.02-.93,.27-1,1.01-.1,1.03,.37,1.65,1.52,2,1.06,.32,2.15,.55,3.18,.95,.6,.23,1.22,.62,1.63,1.1,.96,1.13,3.44,1.81,4.77,1.18,.07-.03,.13-.06,.19-.1,.45-.31,.55-.81,.14-1.16-1.05-.91-2.11-1.83-3.24-2.64-1.15-.82-2.55-1.11-3.84-1.63-1.05-.42-2.1-.65-3.34-.73Zm26.45,6.28s.02-.07,.03-.11c.16-.01,.33-.01,.49-.03,1.21-.15,2.29-.45,3.11-1.53,.44-.58,1.2-.98,1.9-1.29,.96-.42,1.99-.67,2.98-1.01,1.07-.37,1.33-.82,1.15-1.94-.1-.66-.41-.97-1.07-.89-.8,.09-1.62,.23-2.39,.47-.91,.29-1.79,.7-2.67,1.08-1.92,.83-3.59,2.02-5,3.58-.42,.46-.38,.92,.15,1.23,.39,.22,.87,.31,1.3,.46Zm-1.94-9.53c-.03-1.3-.59-1.78-1.86-1.46-.5,.13-1.04,.38-1.41,.74-.82,.79-1.24,1.84-1.4,2.96-.05,.37,.08,.8,.23,1.16,.21,.52,.69,.73,1.21,.53,1.49-.59,2.5-1.7,3.11-3.17,.09-.23,.08-.5,.12-.75Zm-13.72,.59s.02,.24,.05,.43c.01,.09,.03,.19,.07,.26,.78,1.25,1.81,2.24,3.19,2.78,.57,.23,1.08-.1,1.25-.71,.44-1.6-.75-3.92-2.31-4.51-1.65-.62-2.26-.2-2.25,1.74Zm78.69-2.5c-.94,.15-1.74,.34-2.33,1.03-.72,.85-1.46,1.68-2.15,2.55-.3,.38-.57,.81-.77,1.25-.09,.2,0,.49,0,.75,.24,0,.5,.05,.71-.04,2.21-.92,3.66-2.7,4.96-4.61,.12-.17,.23-.51,.14-.63-.11-.18-.42-.23-.56-.29Zm-138.16,6.65c.38-.02,.59-.2,.47-.53-.16-.42-.33-.87-.61-1.2-.83-.96-1.71-1.88-2.6-2.79-.62-.63-.75-.62-1.43-.07-.13,.1-.26,.2-.4,.29-.29,.19-.31,.41-.12,.69,1.09,1.57,2.41,2.86,4.26,3.48,.15,.05,.31,.1,.43,.13Z"></path>
      <path class="cls-1" d="M98.08,0c.33,.96,.64,1.92,.99,2.88,.18,.49,.36,1,.65,1.43,.5,.72,1.4,1.01,2.17,.67,2.21-.99,4.56-1.13,6.91-1.35,2.3-.22,4.5,.26,6.61,1.06,3.12,1.18,6.15,2.59,8.93,4.49,1.47,1.01,3.02,1.94,4.83,2.15,.94,.11,1.91,.05,2.86-.04,.7-.07,.94-.5,.75-1.18-.13-.45-.33-.9-.6-1.27-.78-1.08-.91-2.28-.75-3.55,.02-.17,.11-.39,.24-.47,.9-.55,1.8-1.17,2.92-.91,.45,.1,.94,.37,1.25,.71,1.07,1.18,1.81,2.57,2.19,4.11,.39,1.57-.18,2.98-1.01,4.3-.22,.35-.45,.7-.71,1.03-.23,.28-.46,.6-.76,.77-1.5,.84-3.04,1.54-4.82,1.53-.43,0-.86,.16-1.29,.24v.18c.57,.2,1.14,.41,1.71,.61,4.56,1.53,8.88,3.59,13.06,5.94,2.69,1.52,5.27,3.21,7.9,4.82,2.73,1.67,5.32,3.55,7.8,5.59,.77,.64,1.48,1.35,2.23,2.01,1.03,.91,2.11,1.78,3.1,2.73,.91,.87,1.7,1.85,2.6,2.72,2.69,2.62,5.15,5.46,7.44,8.44,4.29,5.61,8.11,11.53,11.36,17.82,.17,.32,.36,.63,.52,.96,.21,.44,.09,.8-.32,1.01-.45,.23-.71,.04-.91-.37-2.82-5.51-6.28-10.61-10.04-15.49-2.14-2.78-4.53-5.37-6.82-8.04-4.05-4.73-8.75-8.74-13.65-12.53-5.64-4.36-11.73-7.95-18.18-10.93-2.52-1.16-5.02-2.42-7.63-3.31-3.72-1.26-7.45-2.55-11.31-3.34-2.28-.46-4.56-.85-6.85-1.2-3.17-.49-6.34-.75-9.53-.92-1.88-.1-3.76-.27-5.65,0-.85,.12-1.74-.06-2.61,.02-2.54,.25-5.09,.5-7.62,.86-2.08,.29-4.13,.75-6.21,1.09-4.93,.8-9.66,2.32-14.29,4.14-2.41,.95-4.72,2.16-7.06,3.26-1.52,.72-3.06,1.42-4.55,2.21-1.58,.84-3.19,1.68-4.66,2.71-3.48,2.43-6.88,4.99-10.33,7.47-3,2.16-5.47,4.9-8.15,7.41-2.46,2.31-4.53,4.98-6.77,7.5-2.39,2.69-4.3,5.7-6.26,8.68-1.25,1.9-2.36,3.89-3.49,5.87-.87,1.53-1.65,3.12-2.51,4.66-.14,.26-.44,.54-.72,.59-.27,.06-.63-.1-.87-.28-.1-.08-.06-.47,.03-.67,1.77-3.64,3.77-7.16,5.95-10.57,3.94-6.18,8.46-11.89,13.61-17.06,6.47-6.5,13.54-12.24,21.56-16.77,4.41-2.49,8.94-4.68,13.63-6.55,.57-.23,1.14-.43,1.71-.64,0-.07,0-.13,0-.2-.31-.08-.62-.2-.93-.24-2.21-.24-4.06-1.25-5.81-2.56-3-2.24-3.07-7.65,.88-10.06,.61-.37,1.29-.47,2-.38,.68,.08,1.16,.43,1.46,1.08,.62,1.33,.45,2.64-.07,3.93-.14,.35-.5,.65-.83,.88-.38,.26-.46,.51-.25,.91,.54,1.04,1.6,1.65,2.88,1.39,1.47-.3,2.93-.69,4.35-1.17,.65-.22,1.24-.69,1.77-1.15,2.59-2.24,5.6-3.79,8.67-5.18,2.7-1.22,5.58-1.4,8.48-.76,1.61,.36,3.2,.78,4.8,1.18,.19,.05,.38,.12,.58,.16,.74,.15,1.32-.22,1.54-.95,.36-1.17,.73-2.33,1.12-3.48,.08-.25,.28-.46,.43-.68,.11,0,.22,0,.33,0Zm-12.5,12.46c-.1-.08-.22-.22-.37-.27-.81-.32-1.25-.96-1.51-1.76-.13-.42-.26-.84-.42-1.24-.26-.66-.64-.86-1.28-.57-.56,.25-1.13,.54-1.59,.93-2.01,1.68-3.99,3.39-5.97,5.1-.05,.05-.07,.14-.09,.17,3.73-.78,7.46-1.56,11.23-2.35Zm27.98-3.77c-.38,.07-.82,0-.84,.53-.05,.9-.44,1.64-.92,2.36-.36,.54-.29,.71,.34,.84,3.14,.64,6.28,1.29,9.42,1.92,.2,.04,.42-.06,.63-.09-.1-.18-.17-.41-.32-.52-2.24-1.71-4.44-3.47-7.03-4.65-.41-.18-.85-.27-1.28-.4Zm-17.17,3.06s0-.1,0-.15c1.07,0,2.13,.02,3.2,0,.63-.02,.8-.31,.61-.9-.17-.56-.28-1.14-.5-1.67-.32-.76-.66-1.54-1.11-2.23-.52-.8-1.3-.69-1.75,.16-.07,.13-.11,.27-.18,.4-.59,1.14-.65,2.42-.87,3.65-.12,.69-.07,.77,.6,.75Zm-5.11-.08c.02,.08,.05,.15,.07,.23,.93,.13,1.84-.06,2.76-.19,.08-.01,.18-.26,.17-.38-.11-.71-.73-1.09-1.36-.77-.58,.3-1.09,.74-1.63,1.12Zm12.22-.04c.09-.05,.42-.14,.44-.27,.03-.21-.1-.5-.25-.65-.37-.36-1.07-.34-1.37,0-.11,.12-.21,.33-.17,.47,.03,.13,.23,.26,.38,.31,.27,.08,.57,.09,.99,.14Z"></path>
      <path class="cls-1" d="M56.03,89.67c2.7-.07,5.41-.14,8.11-.23,.5-.02,.74,.21,.81,.68,.17,1.1-.12,1.41-1.24,1.45-.7,.02-1.42,.05-2.09,.25-1,.29-1.36,1.01-1.33,2.05,.07,1.77,.1,3.54,.13,5.31,.08,5.86,.15,11.72,.22,17.58,0,.68,.02,1.35,.04,2.03,.02,.85,.49,1.46,1.34,1.52,1.43,.11,2.86,.16,4.29,.15,1.9,0,3.82-.01,5.71-.18,1.45-.13,2.92-.37,4.31-.81,2.99-.93,4.55-3.16,5.07-6.19,.07-.43,.16-.86,.21-1.3,.05-.45,.3-.68,.73-.74,.02,0,.04,0,.05,0,1.32-.21,1.61,.01,1.5,1.34-.2,2.46-.46,4.91-.69,7.36-.04,.38-.08,.77-.06,1.15,.06,.84-.29,1.03-1.04,1.04-1.47,.02-2.93-.05-4.4-.06-.49,0-.98,.07-1.46,.09-.92,.04-1.84,.07-2.76,.1-1.27,.04-2.53,.11-3.8,.13-4.97,.05-9.94,.08-14.91,.14-2.28,.02-4.57,.08-6.85,.13-.43,0-.68-.15-.73-.61-.09-.81,.06-1.22,.57-1.28,.63-.08,1.27-.08,1.9-.1,1.56-.06,2.2-.54,2.3-2.1,.13-1.95,.11-3.91,.1-5.86,0-1.9-.07-3.8-.1-5.69-.06-3.83-.11-7.67-.2-11.5-.02-.67-.14-1.34-.3-2-.34-1.43-1.17-1.96-2.64-1.79-.32,.04-.65,.04-.97,0-.78-.11-1.16-.89-.79-1.6,.07-.13,.22-.24,.36-.28,.19-.06,.39-.06,.59-.06,2.67,0,5.34,0,8,0,0-.03,0-.07,0-.1Z"></path>
      <path class="cls-1" d="M95.65,46.23c2.88,.05,5.76-.05,8.63,.16,10.15,.77,19.36,4.3,27.89,9.79,5.06,3.26,9.45,7.26,13.4,11.79,3.52,4.03,6.3,8.55,8.73,13.31,.12,.23,.21,.47,.3,.7,.39,.92-.28,2.01-1.3,2.04-.2,0-.49-.28-.59-.5-.51-1.11-.92-2.27-1.45-3.36-2.36-4.86-5.5-9.15-9.2-13.1-4.06-4.33-8.67-7.86-13.81-10.74-4.13-2.32-8.43-4.25-13.02-5.46-2.28-.6-4.57-1.19-6.9-1.53-2.63-.39-5.27-.8-7.96-.71-4.57,.16-9.12,.54-13.62,1.43-7.39,1.47-14.32,4.14-20.66,8.22-5.3,3.41-10.17,7.39-14.09,12.39-2.91,3.71-5.28,7.77-6.94,12.22-.42,1.12-.7,1.31-1.7,1.16-.58-.09-.7-.26-.46-.81,.78-1.79,1.51-3.6,2.41-5.33,2.46-4.72,5.53-9.02,9.31-12.76,3.2-3.17,6.64-6.04,10.38-8.57,4.95-3.34,10.3-5.78,15.93-7.55,4.77-1.5,9.68-2.4,14.69-2.81Z"></path>
      <path class="cls-1" d="M101.29,17.02c3.09-.11,6.17,.07,9.22,.54,4.54,.7,9.04,1.58,13.43,2.96,6.76,2.12,13.36,4.72,19.52,8.26,5.99,3.44,11.72,7.34,16.78,12.11,7.36,6.96,13.66,14.78,18.49,23.75,.17,.31,.39,.62-.05,.9-.35,.22-.69,.07-.93-.34-2.31-3.93-4.68-7.82-7.71-11.26-1.38-1.57-2.59-3.3-3.97-4.86-4.81-5.44-10.09-10.35-16.14-14.37-2.47-1.64-4.88-3.38-7.46-4.82-3.96-2.21-7.96-4.38-12.32-5.74-2.73-.85-5.42-1.89-8.17-2.64-4.13-1.13-8.31-2.03-12.6-2.34-1.82-.13-3.63-.46-5.46-.65-.68-.07-1.37,.02-2.06,0-.81-.01-1.63-.1-2.44-.07-2.42,.09-4.85,.11-7.27,.35-3.1,.3-6.23,.59-9.27,1.22-3.72,.76-7.45,1.65-11.04,2.89-4.66,1.6-9.23,3.48-13.62,5.78-7.33,3.84-14.18,8.35-20.17,14.12-1.58,1.53-3.31,2.92-4.82,4.51-1.63,1.71-3.16,3.53-4.59,5.41-1.74,2.29-3.32,4.7-4.99,7.05-1.3,1.83-2.4,3.78-3.33,5.83-.22,.49-.55,.82-1.11,.81-.61,0-.83-.36-.54-.9,.9-1.63,1.78-3.27,2.73-4.86,3-4.99,6.51-9.59,10.48-13.82,6.56-7,13.92-13.02,22.29-17.75,8.76-4.95,18.02-8.46,27.93-10.17,1.21-.21,2.4-.47,3.6-.78,1.43-.36,2.93-.51,4.41-.62,2.71-.21,5.43-.34,8.15-.47,1.01-.05,2.03,0,3.05,0Z"></path>
      <path class="cls-1" d="M114.05,110.03c-3.94,0-7.87,0-11.81,0-.51,0-1.01,.06-1.52,.1-.38,.03-.63,.2-.58,.62,.18,1.41,.22,2.86,.6,4.21,.69,2.48,2.61,3.6,5.01,4.04,2.53,.46,4.91,.02,7.11-1.32,1.5-.91,2.93-1.9,3.93-3.4,.25-.38,.58-.48,.98-.29,.23,.11,.47,.21,.67,.35,.47,.32,.49,.51,.14,.98-2.56,3.46-5.94,5.42-10.24,5.79-3.32,.28-6.55,.09-9.65-1.31-2.56-1.15-4.66-2.81-5.6-5.51-1.96-5.65,.03-10.82,5.66-13.13,4.23-1.73,8.6-1.82,12.94-.34,2.34,.8,4.31,2.2,5.5,4.47,.58,1.1,1.05,2.25,1.05,3.53,0,.81-.18,1.02-.98,1.05-1.07,.04-2.14,0-3.21,0,0,.05,0,.1,0,.15Zm-8.39-1.72s0-.03,0-.04c1.59-.06,3.19-.13,4.78-.17,.44-.01,.65-.18,.62-.62-.03-.49-.11-.98-.14-1.46-.07-1.41-.76-2.53-1.63-3.56-.14-.17-.37-.31-.58-.38-1.26-.42-2.55-.71-3.9-.62-2.09,.15-3.63,1.25-4.19,3.1-.24,.81-.38,1.67-.47,2.52-.12,1.21-.06,1.24,1.14,1.24,1.45,0,2.9,0,4.35,0Z"></path>
      <path class="cls-1" d="M138.86,99.53c3.2,0,6.21,.64,8.98,2.35,2.71,1.68,4.03,4.18,4.38,7.25,.21,1.83-.02,3.65-.68,5.39-1.12,2.95-3.43,4.58-6.27,5.56-2.9,1-5.91,1.44-8.95,.98-2.64-.4-5.28-1.12-7.36-2.9-2.39-2.03-3.83-4.6-3.36-7.94,.09-.65,0-1.32,.11-1.96,.59-3.16,2.45-5.38,5.25-6.78,2.47-1.24,5.09-2.01,7.9-1.95Zm.36,1.3s0,.04,0,.05c-.4,0-.8-.02-1.19,0-2.67,.13-4.42,1.47-5.19,4.05-.73,2.46-.87,4.99-.69,7.54,.1,1.48,.34,2.93,1,4.29,.58,1.19,1.44,2.02,2.69,2.48,1.3,.47,2.62,.7,4,.62,2.94-.17,4.74-1.65,5.32-4.55,.36-1.82,.51-3.69,.31-5.55-.19-1.76-.32-3.53-.67-5.26-.41-2.02-1.75-3.23-3.8-3.55-.59-.09-1.19-.08-1.78-.12Z"></path>
      <path class="cls-1" d="M100.77,40.8c3.84,.17,7.65,.5,11.41,1.31,8.48,1.83,16.4,5.03,23.61,9.9,5.41,3.65,10.23,7.97,14.29,13.14,1.84,2.34,3.7,4.65,5.18,7.23,1.25,2.18,2.31,4.46,3.41,6.72,.16,.33,.07,.8,.02,1.19-.02,.14-.28,.35-.41,.34-.17-.01-.39-.18-.47-.35-.8-1.51-1.56-3.05-2.38-4.56-1.88-3.44-4.35-6.47-6.8-9.51-4.5-5.57-9.73-10.35-15.86-14.04-3.98-2.4-8.1-4.59-12.53-6.04-3.71-1.21-7.48-2.19-11.35-2.74-3.36-.48-6.72-.72-10.11-.79-4.35-.09-8.59,.65-12.83,1.49-4.32,.86-8.54,2.08-12.54,3.93-5.98,2.76-11.69,5.99-16.73,10.34-4.22,3.65-8.1,7.6-11.37,12.12-2.28,3.14-3.98,6.61-5.54,10.16-.06,.13-.11,.27-.18,.4-.26,.52-.52,.65-.93,.45-.47-.22-.6-.53-.34-1.03,1.24-2.42,2.38-4.89,3.77-7.21,1.45-2.42,3.06-4.76,4.79-6.98,1.44-1.84,3.16-3.47,4.79-5.16,7.09-7.38,15.5-12.66,25.13-16.03,3.98-1.39,8-2.63,12.18-3.25,2.13-.32,4.29-.52,6.44-.71,1.79-.16,3.58-.23,5.37-.34Z"></path>
      <path class="cls-1" d="M94.76,36.84c-2.47-1.44-3.4-3.69-3.23-6.46,.12-2.03,.64-3.97,2.13-5.43,2.15-2.13,4.76-2.38,7.54-1.56,1.66,.49,2.78,1.6,3.34,3.26,.29,.88,.11,1.14-.81,1.28-.51,.07-.9,.02-1.15-.53-.88-1.96-3.03-2.95-5.1-2.37-.02,0-.03,.01-.05,.02-2.53,.44-3.61,2.73-3.71,4.77-.05,1.05,.13,2.16,.44,3.18,.59,1.97,2.19,2.71,4.06,2.94,1.43,.18,2.77-.22,4.05-.85,.4-.2,.6-.5,.58-.96-.01-.33,.01-.66,.03-.98,.04-.7-.08-.85-.77-.87-.91-.03-1.81-.04-2.72-.07-.51-.02-.78-.28-.83-.82-.08-.88,.12-1.15,1-1.14,1.52,.01,3.05,.03,4.57,.07,.76,.02,.89,.16,.89,.91,0,1.19-.01,2.37-.02,3.56,0,.6-.18,1.15-.7,1.46-1.8,1.08-3.69,1.89-5.85,1.75-1.25-.08-2.49-.46-3.66-1.14Z"></path>
      <path class="cls-1" d="M114.43,39.64c-.45-.17-.55-.51-.39-1.03,1.28-4.09,2.53-8.19,3.79-12.29,.14-.44,.39-.64,.85-.52,.21,.05,.42,.1,.63,.18,.62,.24,.74,.51,.54,1.15-.42,1.3-.86,2.6-1.28,3.9-.22,.66-.15,.79,.5,.99,1.75,.53,3.51,1.06,5.26,1.59,.65,.2,.99-.02,1.18-.7,.36-1.26,.73-2.52,1.12-3.77,.19-.6,.36-.68,.97-.52,1.12,.3,1.28,.58,.94,1.68-1.17,3.8-2.34,7.6-3.51,11.4-.28,.9-1.17,1.17-1.89,.53-.15-.14-.24-.5-.19-.71,.5-1.73,1.04-3.46,1.58-5.18,.12-.39,0-.59-.36-.7-1.89-.57-3.79-1.12-5.68-1.71-.57-.18-.74,.11-.88,.56-.45,1.47-.9,2.93-1.36,4.39-.3,.95-.93,1.22-1.81,.76Z"></path>
      <path class="cls-1" d="M144.87,39.92c-.63-.48-.88-.29-1.15,.12-2.01,2.9-4.04,5.79-6.07,8.69-.4,.57-.77,.69-1.29,.47-.77-.33-.9-.8-.42-1.5,1.98-2.86,3.97-5.71,5.95-8.57,.49-.7,.43-1.04-.27-1.54-.77-.55-1.55-1.08-2.33-1.62-.54-.38-.56-.67-.09-1.33,.39-.56,.76-.67,1.23-.34,2.05,1.45,4.09,2.9,6.13,4.35,.58,.41,1.17,.8,1.73,1.23,.5,.39,.61,.91,.35,1.4-.31,.58-.76,.67-1.29,.31-.88-.6-1.78-1.19-2.47-1.65Z"></path>
      <path class="cls-1" d="M55.74,35.05c.07,.1,.25,.28,.37,.49,1.89,3.12,3.77,6.24,5.65,9.36,.25,.42,.53,.41,.9,.18,1.5-.89,3-1.78,4.51-2.66,.8-.47,1.02-.4,1.45,.41,.29,.54,.24,.73-.3,1.07-2.09,1.29-4.17,2.58-6.26,3.86-.62,.38-.91,.32-1.26-.26-2.19-3.66-4.38-7.32-6.56-10.99-.16-.26-.42-.54-.12-.89,.36-.41,1.17-.76,1.61-.57Z"></path>
      <path class="cls-1" d="M81.94,39.05c-.4,.6-.93,.75-1.5,.8-.52,.05-.61-.34-.74-.71-1.44-3.96-2.87-7.92-4.31-11.88-.23-.63-.1-.93,.52-1.12,.17-.05,.35-.08,.53-.13,.53-.15,.86,.03,1.05,.56,.67,1.87,1.36,3.74,2.04,5.6,.75,2.04,1.51,4.07,2.26,6.11,.1,.26,.12,.55,.16,.78Z"></path>
    </g>
    <g>
      <path class="cls-1" d="M1261.85,139.87v-8.97h-3.38v-1.83h9.06v1.83h-3.38v8.97h-2.3Z"></path>
      <path class="cls-1" d="M1268.99,139.87v-10.8h3.45l2.07,7.36,2.05-7.36h3.45v10.8h-2.14v-8.5l-2.26,8.5h-2.22l-2.26-8.5v8.5h-2.14Z"></path>
    </g>
  </g>
  <g>
    <path class="cls-1" d="M28.64,197.57v-3.57c-.65-.43-1.1-.81-1.36-1.12-.26-.31-.39-.6-.39-.86s.11-.57,.34-.91c.23-.34,.6-.72,1.12-1.15,.52-.42,1.19-.88,2.01-1.37,.74-.45,1.42-.8,2.05-1.05,.63-.25,1.24-.42,1.84-.54,.6-.11,1.21-.17,1.84-.17,.54,0,1.13,.05,1.75,.14,.63,.09,1.3,.28,2.03,.55,.73,.27,1.5,.67,2.32,1.2,.58,.36,1.12,.76,1.61,1.19,.49,.43,.87,.91,1.15,1.42,.28,.51,.42,1.07,.42,1.67v8.52c0,.34,.12,.67,.37,1,.25,.33,.62,.6,1.12,.82,.5,.22,1.12,.33,1.85,.33s1.39-.11,1.88-.33c.5-.22,.87-.49,1.1-.82,.24-.33,.36-.66,.36-1v-6.45h4.65v6.94c0,.6-.3,1.23-.89,1.87-.6,.64-1.48,1.18-2.66,1.61-1.18,.43-2.66,.65-4.44,.65s-3.23-.22-4.42-.65c-1.19-.43-2.09-.97-2.68-1.61-.6-.64-.89-1.26-.89-1.87v-9.14c0-.42-.14-.84-.41-1.26-.27-.42-.64-.81-1.12-1.15-.48-.34-1-.62-1.58-.83-.57-.22-1.16-.33-1.77-.33-.43,0-.87,.06-1.32,.17-.44,.11-.87,.28-1.28,.5-.41,.22-.82,.48-1.22,.78-.4,.3-.79,.63-1.15,.99l2.4,1.33v4.5h-4.65Zm0-.4h4.65v1.53c.91-.04,1.66,.06,2.26,.28,.6,.23,1.04,.57,1.33,1.02,.29,.45,.44,.99,.44,1.61,0,.53-.14,1.05-.41,1.56-.27,.51-.7,1.01-1.3,1.5-.6,.49-1.37,.98-2.32,1.47h-4.65v-8.97Zm4.65,3.76v2.46c.43-.23,.74-.48,.91-.75,.17-.27,.26-.54,.26-.81,0-.36-.11-.59-.34-.71s-.5-.18-.83-.2Zm23.43-4.36h-4.65v-2.24c-.71-.45-1.26-.83-1.62-1.12-.37-.29-.62-.54-.75-.74-.13-.2-.2-.37-.2-.52,0-.26,.12-.58,.37-.95,.25-.37,.67-.87,1.25-1.51,.58-.64,1.38-1.51,2.37-2.6,.8,.36,1.5,.67,2.1,.93,.6,.26,1.15,.47,1.67,.61s1.06,.2,1.62,.18c0,.36-.1,.75-.29,1.16s-.47,.76-.83,1.03c-.36,.27-.8,.41-1.32,.41-.17,0-.37-.02-.6-.07-.23-.05-.5-.14-.83-.27-.32-.13-.75-.31-1.27-.54l-.84,1.02,3.8,2.09v3.11Z"></path>
    <path class="cls-1" d="M41.22,179.68c0-.74,.2-1.36,.6-1.87,.4-.51,1-.91,1.8-1.19,.8-.28,1.78-.42,2.92-.42,.82,0,1.65,.08,2.47,.24,.82,.16,1.65,.42,2.47,.78,.82,.36,1.64,.83,2.44,1.42,.61,.42,1.02,.78,1.25,1.1,.23,.32,.34,.65,.34,.99,0,.36-.12,.66-.36,.89-.24,.24-.63,.35-1.17,.35h-9.55c-1.06,0-1.86-.18-2.4-.55-.54-.37-.81-.95-.81-1.74Zm3.31,.25h6.43c-.41-.28-.84-.53-1.28-.74-.44-.21-.91-.37-1.4-.5-.49-.12-.99-.18-1.51-.18s-.95,.06-1.28,.18c-.34,.12-.58,.29-.73,.5-.15,.21-.23,.45-.23,.74Zm10.98,.79h-3.09v-6.4h3.09v6.4Z"></path>
    <path class="cls-1" d="M69.16,194.49v11.66h-4.65c-.87-.36-1.6-.75-2.19-1.17-.6-.42-1.05-.88-1.35-1.37-.3-.49-.46-1.01-.46-1.56s.15-1.09,.46-1.58c.3-.49,.75-.9,1.35-1.22,.6-.32,1.33-.49,2.19-.51v-4.25h4.65Zm0,2.09h-4.65v-2.24c-.72-.45-1.26-.83-1.62-1.12-.37-.29-.61-.54-.73-.74-.12-.2-.18-.37-.18-.52,0-.26,.12-.58,.37-.95,.25-.37,.66-.87,1.23-1.51,.57-.64,1.36-1.51,2.36-2.6,.82,.36,1.53,.67,2.11,.93,.58,.26,1.14,.47,1.67,.61,.53,.14,1.07,.2,1.61,.18,0,.36-.1,.75-.29,1.16-.2,.42-.47,.76-.81,1.03-.35,.27-.79,.41-1.33,.41-.15,0-.34-.02-.57-.07s-.51-.14-.84-.27c-.34-.13-.76-.31-1.28-.54l-.84,1.02,3.8,2.09v3.11Zm-4.65,7.05v-2.46c-.39,.02-.69,.11-.91,.27-.22,.16-.32,.39-.32,.69,0,.25,.1,.5,.29,.76,.19,.26,.51,.51,.94,.74Zm12.09-5.09v-.91h-7.44v.91h-4.65v-4.13h4.65v.74h7.44v-.74h4.65v4.13h-4.65Zm4.65-4.05v11.66h-4.65c-.87-.36-1.6-.75-2.19-1.17-.6-.42-1.05-.88-1.35-1.37-.3-.49-.45-1.01-.45-1.56s.15-1.09,.45-1.58c.3-.49,.75-.9,1.35-1.22,.6-.32,1.33-.49,2.19-.51v-4.25h4.65Zm0,2.09h-4.65v-2.24c-.71-.45-1.26-.83-1.62-1.12-.37-.29-.61-.54-.73-.74-.12-.2-.18-.37-.18-.52,0-.26,.12-.58,.37-.95,.25-.37,.66-.87,1.23-1.51,.57-.64,1.36-1.51,2.36-2.6,.82,.36,1.53,.67,2.11,.93,.58,.26,1.14,.47,1.67,.61,.53,.14,1.07,.2,1.61,.18,0,.36-.1,.75-.29,1.16s-.47,.76-.81,1.03c-.35,.27-.79,.41-1.33,.41-.15,0-.35-.02-.58-.07-.24-.05-.52-.14-.84-.27-.32-.13-.75-.31-1.27-.54l-.84,1.02,3.8,2.09v3.11Zm-4.65,7.05v-2.46c-.39,.02-.69,.11-.91,.27-.22,.16-.32,.39-.32,.69,0,.25,.1,.5,.29,.76,.19,.26,.51,.51,.94,.74Z"></path>
    <path class="cls-1" d="M76.67,214.16c-1.06,0-1.98-.18-2.76-.52-.78-.35-1.17-.87-1.17-1.57,0-.23,.04-.47,.11-.72,.08-.25,.16-.48,.24-.67l.1-.25c-.22,0-.43-.11-.65-.33-.22-.22-.32-.5-.32-.86,0-.47,.23-.88,.68-1.22,.45-.34,1.09-.51,1.92-.51,.67,0,1.17,.12,1.49,.35,.32,.24,.49,.62,.49,1.15,0,.21-.03,.43-.1,.68-.06,.25-.16,.55-.29,.91-.15,.43-.17,.77-.05,1.02,.12,.25,.4,.37,.83,.37,.35,0,.63-.08,.86-.24s.43-.4,.62-.71c.18-.31,.37-.68,.57-1.12,.26-.64,.51-1.14,.76-1.49,.25-.35,.51-.59,.8-.72,.28-.13,.58-.2,.91-.2,.58,0,.99,.12,1.22,.37,.23,.25,.34,.55,.34,.91,0,.26-.07,.62-.19,1.06-.13,.44-.34,.91-.63,1.42-.29,.5-.69,.97-1.19,1.42-.5,.44-1.13,.8-1.88,1.08-.76,.27-1.66,.41-2.7,.41Z"></path>
    <path class="cls-1" d="M93.99,194.49v11.66h-4.65c-.89-.36-1.63-.75-2.23-1.17-.6-.42-1.05-.88-1.35-1.37-.3-.49-.45-1.01-.45-1.56s.15-1.09,.45-1.58c.3-.49,.75-.9,1.35-1.22,.6-.32,1.34-.49,2.23-.51v-4.25h4.65Zm-4.65,2.52v-2.6c-.65-.38-1.16-.7-1.53-.96-.37-.26-.63-.5-.8-.69-.16-.2-.24-.4-.24-.61,0-.23,.1-.51,.31-.85,.21-.34,.6-.85,1.17-1.53,.57-.68,1.4-1.63,2.49-2.86,.41,.32,.78,.56,1.12,.72,.34,.16,.65,.24,.96,.24,.37,0,.67-.09,.91-.25,.24-.17,.36-.39,.36-.65,0-.36-.22-.69-.65-.99-.43-.3-.95-.45-1.56-.45,.13-.51,.32-.91,.57-1.19,.25-.28,.53-.48,.84-.59,.31-.11,.6-.17,.86-.17,.5,0,.97,.14,1.43,.42,.45,.28,.82,.68,1.1,1.19,.28,.51,.42,1.09,.42,1.75,0,.77-.18,1.46-.55,2.05-.37,.59-.86,1.06-1.46,1.4-.61,.34-1.27,.51-1.98,.51-.3,0-.62-.04-.96-.11-.34-.08-.7-.2-1.09-.37l-.88,1.08,3.8,2.04v3.48h-4.65Zm0,6.62v-2.46c-.41,.02-.73,.11-.94,.27-.22,.16-.32,.39-.32,.69,0,.25,.1,.5,.29,.76,.2,.26,.52,.51,.97,.74Z"></path>
    <path class="cls-1" d="M110.4,181.5c-.04,.34,.03,.64,.23,.89,.19,.25,.45,.38,.78,.38,.22,0,.41-.05,.57-.16s.29-.26,.39-.48c.1-.22,.15-.49,.15-.81,0-.64-.21-1.08-.62-1.3-.41-.23-.88-.34-1.4-.34h-.94c-.97,0-1.66-.11-2.05-.33-.39-.22-.69-.5-.91-.86-.19-.32-.38-.6-.57-.83-.18-.24-.54-.37-1.06-.41,0-.32,.09-.64,.28-.95,.18-.31,.48-.58,.88-.79,.4-.22,.95-.33,1.64-.33,.87,0,1.5,.19,1.9,.58,.4,.39,.63,.96,.7,1.71h.65c1.13,0,2.08,.16,2.86,.48,.78,.32,1.38,.75,1.79,1.3,.41,.55,.62,1.16,.62,1.84,0,.62-.19,1.22-.57,1.8-.38,.58-.95,1.04-1.72,1.39-.77,.35-1.74,.52-2.91,.52-.91,0-1.7-.12-2.37-.35-.67-.24-1.2-.54-1.58-.91-.38-.37-.57-.75-.57-1.15,0-.43,.21-.77,.63-1.02,.42-.25,.93-.37,1.51-.37s1.15,.16,1.69,.48Zm3.02,15.09h-4.65v-2.24c-.71-.45-1.26-.83-1.62-1.12-.37-.29-.62-.54-.75-.74-.13-.2-.19-.37-.19-.52,0-.26,.12-.58,.37-.95,.25-.37,.67-.87,1.25-1.51,.58-.64,1.38-1.51,2.37-2.6,.8,.36,1.5,.67,2.1,.93,.6,.26,1.15,.47,1.67,.61s1.06,.2,1.62,.18c0,.36-.1,.75-.29,1.16-.19,.42-.47,.76-.83,1.03-.36,.27-.8,.41-1.32,.41-.17,0-.37-.02-.6-.07s-.5-.14-.83-.27c-.32-.13-.75-.31-1.27-.54l-.84,1.02,3.8,2.09v3.11Zm-4.65,1.3v-3.59h4.65v3.59h-4.65Zm0-.71h4.65v1.53c.91-.04,1.66,.06,2.26,.28,.6,.23,1.04,.57,1.33,1.02,.29,.45,.44,.99,.44,1.61,0,.53-.14,1.05-.41,1.56-.27,.51-.7,1.01-1.3,1.5-.6,.49-1.37,.98-2.32,1.47h-4.65v-8.97Zm4.65,3.76v2.46c.43-.23,.74-.48,.91-.75,.17-.27,.26-.54,.26-.81,0-.36-.11-.59-.34-.71-.23-.11-.5-.18-.83-.2Z"></path>
    <path class="cls-1" d="M122.22,201.65h4.58v.51c0,.45,.11,.82,.32,1.1,.22,.28,.52,.42,.91,.42,.41,0,.71-.14,.91-.42,.2-.28,.29-.64,.29-1.08v-1.56h-.71c-1.13,0-2.19-.16-3.18-.48-1-.32-1.88-.76-2.65-1.32-.77-.56-1.36-1.2-1.79-1.94s-.63-1.54-.63-2.41v-3.17c0-.91,.35-1.69,1.06-2.36,.7-.67,1.69-1.19,2.97-1.56,1.28-.37,2.81-.55,4.58-.55s3.28,.19,4.57,.58c1.29,.39,2.29,.9,2.99,1.54,.7,.64,1.06,1.36,1.06,2.15v.96c0,.47-.12,.93-.36,1.37-.24,.44-.66,.8-1.25,1.08-.6,.27-1.41,.41-2.45,.41-.89,0-1.59-.1-2.1-.3-.51-.2-.87-.46-1.07-.79-.21-.33-.31-.7-.31-1.12,0-.68,.24-1.2,.73-1.56,.49-.36,1.23-.54,2.23-.54-.02-.28-.22-.52-.58-.72-.37-.2-.84-.35-1.41-.45-.57-.1-1.19-.16-1.84-.16-1.02,0-1.83,.1-2.44,.31-.61,.21-1.05,.48-1.32,.82-.27,.34-.41,.73-.41,1.16v3.06c0,.79,.16,1.46,.47,2,.31,.54,.74,.95,1.28,1.23,.54,.28,1.13,.42,1.75,.42h.81c.22-.36,.54-.73,.96-1.12,.42-.39,.98-.72,1.67-.99,.69-.27,1.52-.41,2.47-.41,.8,0,1.42,.1,1.87,.31,.44,.21,.76,.47,.94,.79,.18,.32,.28,.64,.28,.96,0,.4-.12,.79-.36,1.19-.24,.4-.62,.74-1.14,1.02-.52,.28-1.2,.47-2.05,.57v1.81c0,.74-.2,1.38-.6,1.92-.4,.55-1.03,.98-1.88,1.3-.86,.32-1.98,.48-3.36,.48s-2.42-.15-3.28-.45c-.87-.3-1.51-.72-1.92-1.26-.41-.54-.62-1.17-.62-1.88v-.91Zm9.13,10.3v-.31c-.45-.06-.84-.25-1.17-.58-.32-.33-.49-.75-.49-1.26,0-.7,.31-1.25,.94-1.66,.63-.41,1.44-.61,2.44-.61,1.06,0,1.81,.18,2.26,.55,.44,.37,.67,.83,.67,1.37v2.49h-4.65Zm4.65-.85v.88l3.35-2.41,3.31,2.41v-16.76h4.65v19.9h-4.68l-3.28-2.38-3.31,2.38h-4.68v-4.02h4.65Zm-3.09-17.66v-1.5c-.24,0-.44,.05-.62,.16-.17,.1-.26,.3-.26,.58,0,.23,.07,.41,.21,.55,.14,.14,.36,.21,.67,.21Zm2.01,4.05c-.17,0-.33,.04-.47,.11-.14,.08-.26,.18-.36,.31-.1,.13-.18,.26-.24,.4,.32-.02,.6-.05,.81-.1,.22-.05,.38-.11,.49-.2,.11-.08,.16-.17,.16-.27,0-.08-.03-.14-.1-.18-.07-.05-.16-.07-.29-.07Zm12.38-.91h-4.65v-2.24c-.72-.45-1.26-.83-1.62-1.12-.37-.29-.62-.54-.75-.74-.13-.2-.19-.37-.19-.52,0-.26,.12-.58,.37-.95,.25-.37,.67-.87,1.25-1.51,.58-.64,1.38-1.51,2.37-2.6,.8,.36,1.5,.67,2.1,.93,.6,.26,1.15,.47,1.67,.61s1.05,.2,1.59,.18c0,.36-.09,.75-.28,1.16-.18,.42-.45,.76-.81,1.03-.36,.27-.81,.41-1.35,.41-.15,0-.34-.02-.57-.07s-.5-.14-.83-.27c-.32-.13-.75-.31-1.27-.54l-.84,1.02,3.8,2.09v3.11Z"></path>
    <path class="cls-1" d="M157.67,192.59l-2.99,1.56c-.61-.43-1.1-.88-1.49-1.33-.39-.45-.58-.97-.58-1.56,0-.25,.06-.51,.18-.81,.12-.29,.35-.63,.7-1.01,.35-.38,.87-.81,1.56-1.3,.67-.47,1.24-.83,1.71-1.06,.47-.24,.83-.35,1.09-.35s.57,.11,.93,.34c.36,.23,.84,.59,1.45,1.08,.56,.43,.98,.74,1.25,.92,.27,.18,.49,.27,.67,.27,.19,0,.43-.09,.71-.27,.28-.18,.67-.47,1.17-.86,.58-.41,1.07-.75,1.46-1.02,.39-.26,.7-.4,.94-.4,.17,0,.4,.07,.67,.21,.27,.14,.65,.42,1.15,.83l1.17,.96c.45,.36,.88,.59,1.28,.69,.4,.1,.87,.13,1.41,.07-.17,.59-.42,1.05-.75,1.4-.32,.35-.68,.59-1.07,.74-.39,.14-.76,.21-1.1,.21-.43,0-.82-.09-1.17-.25-.35-.17-.66-.37-.93-.61-.27-.24-.52-.44-.75-.61-.23-.17-.45-.25-.67-.25-.2,0-.41,.08-.65,.25-.24,.17-.53,.35-.88,.54-.48,.28-.95,.5-1.41,.67-.47,.16-.93,.24-1.38,.24-.54,0-1.05-.11-1.53-.33-.48-.22-.99-.53-1.53-.95-.32-.23-.57-.39-.75-.48-.17-.09-.32-.14-.46-.14s-.24,.02-.34,.07c-.1,.05-.2,.12-.31,.21-.11,.09-.2,.19-.28,.3-.08,.1-.11,.23-.11,.38,0,.21,.14,.43,.41,.68,.27,.25,.68,.57,1.22,.96Zm-3.31,6.03v-1.75c0-.49,.22-.96,.67-1.4,.44-.44,1.04-.84,1.79-1.19s1.6-.62,2.57-.82c.96-.2,1.98-.3,3.04-.3,1.45,0,2.79,.18,4.03,.54,1.23,.36,2.22,.82,2.96,1.37,.74,.56,1.1,1.16,1.1,1.8v9.28h-4.65v-8.38c0-.47-.15-.87-.44-1.19-.29-.32-.69-.56-1.19-.72-.5-.16-1.09-.24-1.79-.24s-1.33,.09-1.84,.25c-.51,.17-.9,.42-1.19,.74-.28,.32-.42,.71-.42,1.16v.85h-4.65Zm0-1.44h4.65v1.53c.91-.04,1.66,.06,2.26,.28,.6,.23,1.05,.57,1.35,1.02,.3,.45,.45,.99,.45,1.61,0,.53-.14,1.05-.42,1.56-.28,.51-.72,1.01-1.3,1.5-.58,.49-1.36,.98-2.34,1.47h-4.65v-8.97Zm4.65,3.76v2.46c.43-.23,.74-.48,.93-.75,.18-.27,.28-.54,.28-.81,0-.36-.11-.59-.34-.71-.23-.11-.51-.18-.86-.2Z"></path>
    <path class="cls-1" d="M164.14,181.98c-.54,0-1.01-.07-1.4-.2-.39-.13-.76-.31-1.1-.54-.35,.21-.72,.38-1.12,.52-.4,.14-.89,.21-1.48,.21-.82,0-1.53-.15-2.13-.45-.6-.3-1.06-.71-1.38-1.22-.32-.51-.49-1.06-.49-1.64,0-.66,.18-1.23,.55-1.71,.37-.48,.84-.87,1.43-1.17,.58-.3,1.2-.51,1.85-.64,.65-.12,1.25-.17,1.79-.16,.52-.62,1.09-1.15,1.71-1.57,.62-.42,1.23-.75,1.85-.98,.62-.23,1.19-.34,1.71-.34,.48,0,.89,.11,1.23,.33,.35,.22,.57,.55,.67,1,.1,.45,0,1.04-.31,1.76-.63-.19-1.26-.22-1.88-.1-.63,.12-1.25,.3-1.85,.52-.52,.15-1.02,.39-1.49,.72-.48,.33-.88,.72-1.2,1.17-.37-.04-.74-.01-1.1,.07-.37,.09-.67,.22-.91,.4-.24,.18-.36,.43-.36,.75,0,.3,.12,.54,.36,.72,.24,.18,.52,.27,.84,.27,.3,0,.6-.07,.89-.2,.29-.13,.6-.36,.93-.68,.26,.23,.54,.43,.84,.61,.3,.18,.67,.27,1.1,.27,.35,0,.63-.07,.84-.21,.22-.14,.32-.34,.32-.61,0-.28-.11-.47-.34-.57-.23-.09-.47-.14-.73-.14-.09-.49,.07-.95,.47-1.39,.4-.43,.96-.65,1.67-.65,.37,0,.75,.08,1.14,.24,.39,.16,.72,.42,.99,.76,.27,.35,.41,.82,.41,1.4s-.16,1.17-.49,1.7c-.32,.53-.81,.95-1.46,1.26-.65,.31-1.44,.47-2.37,.47Z"></path>
  </g>
  <g>
    <path class="cls-1" d="M244.71,129.07c-.76,0-1.35-.2-1.77-.59-.42-.39-.63-.85-.63-1.37,0-.61,.23-1.15,.69-1.63,.46-.48,1.03-.85,1.72-1.11,2.59-.78,4.44-1.69,5.55-2.74,1.1-1.04,1.66-2.91,1.66-5.61V56.32c0-1.91-.19-3.39-.57-4.43-.38-1.04-1.11-1.87-2.17-2.48-1.07-.61-2.63-1.17-4.69-1.7-1.6-.43-2.4-1.35-2.4-2.74,0-.61,.23-1.09,.69-1.43,.46-.35,.99-.52,1.6-.52,1.75,0,3.6,.05,5.55,.13,1.94,.09,3.85,.2,5.72,.33,1.87,.13,3.56,.2,5.09,.2,1.6,0,3.39-.04,5.38-.13,1.98-.09,4.02-.17,6.12-.26,2.1-.09,3.98-.13,5.66-.13,.69,0,1.2,.15,1.54,.46,.34,.31,.51,.76,.51,1.37,0,.87-.21,1.48-.63,1.83-.42,.35-1.01,.65-1.77,.91-3.13,.96-5.24,1.98-6.35,3.06-1.11,1.09-1.66,2.93-1.66,5.54v58.67c0,2.43,.48,4.17,1.43,5.22,.95,1.04,2.53,1.56,4.75,1.56h11.67c1.68,0,3.18-.33,4.52-.98,1.33-.65,2.53-1.5,3.6-2.54,1.3-1.39,2.44-2.98,3.43-4.76,.99-1.78,1.87-3.63,2.63-5.54,.76-1.74,1.35-2.87,1.77-3.39,.42-.52,.86-.78,1.32-.78,.61,0,1.03,.31,1.26,.91,.23,.61,.34,1.17,.34,1.7,0,.18-.08,.57-.23,1.17-.15,.61-.23,1.09-.23,1.43-.53,2.52-1.03,4.72-1.49,6.58-.46,1.87-.82,3.65-1.09,5.35-.27,1.69-.51,3.59-.74,5.67-.08,.61-.25,1.17-.51,1.69-.27,.52-.71,.78-1.32,.78-1.6,0-3.93-.04-6.98-.13-3.05-.09-6.46-.15-10.24-.2-3.78-.05-7.63-.11-11.56-.2-3.93-.09-7.57-.13-10.93-.13-1.6,0-3.43,.04-5.49,.13-2.06,.09-4.06,.2-6.01,.33-1.94,.13-3.53,.2-4.75,.2Z"></path>
    <path class="cls-1" d="M338.63,129.07c-4.12,0-7.8-1.08-11.04-3.23-3.24-2.16-5.8-5.11-7.67-8.85-1.87-3.74-2.8-8-2.8-12.76s1.1-9.09,3.32-12.99c2.21-3.89,5.22-7,9.04-9.3,3.81-2.31,8.01-3.46,12.58-3.46,3.28,0,6.22,.7,8.81,2.1,2.59,1.4,4.67,3.27,6.24,5.62,1.56,2.35,2.35,4.99,2.35,7.94s-1.18,4.31-3.55,4.31h-22.88c-1.07,0-1.85,.3-2.35,.91-.5,.61-.74,1.63-.74,3.06,0,2.88,.65,5.5,1.94,7.89,1.3,2.38,3.05,4.25,5.26,5.62,2.21,1.36,4.77,2.04,7.67,2.04,2.21,0,4.25-.42,6.12-1.25,1.87-.83,3.72-1.97,5.55-3.4,.3-.23,.59-.43,.86-.62,.27-.19,.51-.28,.74-.28,.76,0,1.14,.49,1.14,1.48,0,.83-.31,1.97-.91,3.4-.76,1.89-2.04,3.76-3.83,5.62-1.79,1.85-4.02,3.35-6.69,4.48-2.67,1.13-5.72,1.7-9.15,1.7Zm-5.61-35.4h6.86c2.13,0,3.62-.04,4.46-.11,.84-.07,1.6-.23,2.29-.45,.38-.15,.69-.53,.92-1.13,.23-.6,.34-1.29,.34-2.04,0-2.04-.71-3.7-2.12-4.99-1.41-1.28-3.15-1.93-5.21-1.93-1.6,0-3.11,.44-4.52,1.3-1.41,.87-2.56,2-3.43,3.4-.88,1.4-1.28,2.86-1.2,4.37,0,1.06,.53,1.59,1.6,1.59Z"></path>
    <path class="cls-1" d="M394.81,129.07c-4.58,0-8.69-1.02-12.36-3.06s-6.58-4.86-8.75-8.45c-2.17-3.59-3.26-7.66-3.26-12.2,0-3.63,.69-7.07,2.06-10.33,1.37-3.25,3.28-6.13,5.72-8.63,2.44-2.5,5.3-4.46,8.58-5.9,3.28-1.44,6.79-2.16,10.53-2.16,4.73,0,9,1.1,12.81,3.29,3.81,2.2,6.85,5.09,9.1,8.68,2.25,3.59,3.38,7.51,3.38,11.75,0,4.84-1.05,9.33-3.15,13.45-2.1,4.12-5.19,7.42-9.27,9.87-4.08,2.46-9.21,3.69-15.39,3.69Zm2.29-4.99c1.6,0,2.99-.32,4.18-.96,1.18-.64,2.15-1.61,2.92-2.89,.92-1.51,1.54-3.57,1.89-6.18,.34-2.61,.52-5.69,.52-9.25,0-4.09-.46-7.73-1.37-10.95-.92-3.21-2.19-5.77-3.83-7.66-1.64-1.89-3.57-2.84-5.78-2.84-1.22,0-2.33,.21-3.32,.62-.99,.42-1.87,1-2.63,1.76-1.3,1.51-2.19,3.67-2.69,6.47-.5,2.8-.74,6.24-.74,10.33,0,3.63,.48,7.09,1.43,10.38,.95,3.29,2.25,5.98,3.89,8.06,1.64,2.08,3.49,3.12,5.55,3.12Z"></path>
    <path class="cls-1" d="M468.6,129.07c-.76,0-1.36-.2-1.77-.59-.42-.39-.63-.85-.63-1.37,0-.61,.23-1.15,.69-1.63,.46-.48,1.03-.85,1.72-1.11,2.59-.78,4.44-1.69,5.55-2.74,1.11-1.04,1.66-2.91,1.66-5.61V56.32c0-1.91-.19-3.39-.57-4.43-.38-1.04-1.11-1.87-2.17-2.48-1.07-.61-2.63-1.17-4.69-1.7-1.6-.43-2.4-1.35-2.4-2.74,0-.61,.23-1.09,.69-1.43,.46-.35,.99-.52,1.6-.52,1.75,0,3.6,.05,5.55,.13,1.94,.09,3.85,.2,5.72,.33,1.87,.13,3.56,.2,5.09,.2s3.39-.04,5.38-.13c1.98-.09,4.02-.17,6.12-.26,2.1-.09,3.98-.13,5.66-.13,.69,0,1.2,.15,1.54,.46,.34,.31,.51,.76,.51,1.37,0,.87-.21,1.48-.63,1.83-.42,.35-1.01,.65-1.77,.91-3.13,.96-5.24,1.98-6.35,3.06-1.11,1.09-1.66,2.93-1.66,5.54v58.67c0,2.43,.47,4.17,1.43,5.22,.95,1.04,2.53,1.56,4.75,1.56h11.67c1.68,0,3.18-.33,4.52-.98,1.33-.65,2.53-1.5,3.6-2.54,1.3-1.39,2.44-2.98,3.43-4.76,.99-1.78,1.87-3.63,2.63-5.54,.76-1.74,1.35-2.87,1.77-3.39,.42-.52,.86-.78,1.32-.78,.61,0,1.03,.31,1.26,.91,.23,.61,.34,1.17,.34,1.7,0,.18-.08,.57-.23,1.17-.15,.61-.23,1.09-.23,1.43-.53,2.52-1.03,4.72-1.49,6.58-.46,1.87-.82,3.65-1.09,5.35-.27,1.69-.52,3.59-.74,5.67-.08,.61-.25,1.17-.52,1.69-.27,.52-.71,.78-1.31,.78-1.6,0-3.93-.04-6.98-.13-3.05-.09-6.46-.15-10.24-.2-3.77-.05-7.63-.11-11.55-.2-3.93-.09-7.57-.13-10.93-.13-1.6,0-3.43,.04-5.49,.13-2.06,.09-4.06,.2-6.01,.33-1.94,.13-3.53,.2-4.75,.2Z"></path>
    <path class="cls-1" d="M540.79,129.07c-.46,0-.88-.14-1.26-.42-.38-.28-.57-.66-.57-1.15,0-.64,.19-1.17,.57-1.57,.38-.4,.88-.68,1.49-.85,1.98-.48,3.38-1.03,4.18-1.63s1.2-1.55,1.2-2.84v-26.1c0-2.74-.4-4.69-1.2-5.86-.8-1.17-2.04-1.87-3.72-2.12-.46-.08-.8-.32-1.03-.73-.23-.4-.34-.89-.34-1.45,0-1.21,.42-1.89,1.26-2.05,3.96-.8,7.49-1.93,10.58-3.38,3.09-1.45,5.47-2.58,7.15-3.38,1.22-.64,1.98-.97,2.29-.97,.99,0,1.49,.48,1.49,1.45-.08,1.37-.25,3.08-.52,5.14s-.5,4.17-.69,6.34c-.19,2.18-.29,4.27-.29,6.28v26.71c0,1.13,.4,2.01,1.2,2.66,.8,.65,2.23,1.29,4.29,1.93,.61,.24,1.1,.52,1.49,.85,.38,.32,.57,.81,.57,1.45,0,1.05-.57,1.57-1.72,1.57-1.45,0-2.97-.04-4.58-.12-1.6-.08-3.15-.16-4.63-.24-1.49-.08-2.92-.12-4.29-.12-1.3,0-2.65,.04-4.06,.12-1.41,.08-2.86,.18-4.35,.3-1.49,.12-2.99,.18-4.52,.18Zm12.59-59.94c-2.37,0-4.44-.93-6.24-2.78-1.79-1.85-2.69-4.07-2.69-6.65,0-2.74,.9-5.03,2.69-6.89,1.79-1.85,3.87-2.78,6.24-2.78,2.67,0,4.88,.93,6.64,2.78,1.75,1.85,2.63,4.15,2.63,6.89,0,2.58-.88,4.79-2.63,6.65-1.76,1.85-3.97,2.78-6.64,2.78Z"></path>
    <path class="cls-1" d="M600.74,172.1c-7.48,0-13.29-1.32-17.45-3.96-4.16-2.64-6.24-6.26-6.24-10.84,0-2.6,.27-4.7,.8-6.3,.53-1.6,1.75-3.18,3.66-4.74,1.45-1.21,2.86-2.42,4.23-3.64,1.37-1.21,2.55-2.21,3.55-2.99l5.61,2.21c-2.37,1.56-4.22,3.25-5.55,5.06-1.33,1.82-2,3.94-2,6.36,0,3.55,1.31,6.49,3.95,8.83,2.63,2.34,5.93,3.51,9.9,3.51,5.26,0,9-1.17,11.21-3.51,1.37-1.56,2.48-3.31,3.32-5.26,.84-1.95,1.26-3.92,1.26-5.91,0-1.39-.42-2.51-1.26-3.38-.84-.87-2.35-1.6-4.52-2.21-2.17-.61-5.21-1.13-9.1-1.56-7.93-.87-13.58-2.55-16.93-5.06-3.36-2.51-5.03-5.84-5.03-10,0-.78,.21-1.58,.63-2.4,.42-.82,1.24-1.71,2.46-2.66,1.22-1.04,2.33-1.97,3.32-2.79,.99-.82,1.83-1.6,2.52-2.34,.69-.73,1.14-1.41,1.37-2.01l5.72,2.21c-1.53,.61-2.77,1.43-3.72,2.47-.95,1.04-1.43,1.95-1.43,2.73,0,.95,.5,1.73,1.49,2.34,.99,.61,2.67,1.1,5.03,1.49,2.36,.39,5.61,.76,9.72,1.1,8.24,.78,14.22,2.23,17.96,4.35,3.74,2.12,5.61,5.21,5.61,9.28,0,3.55-.88,7.08-2.63,10.58-1.76,3.51-4.08,6.71-6.98,9.61-2.9,2.9-6.12,5.19-9.67,6.88-3.55,1.69-7.15,2.53-10.81,2.53Zm.23-49.99c-3.36,0-6.65-.93-9.9-2.79-3.24-1.86-5.91-4.44-8.01-7.73-2.1-3.29-3.15-6.97-3.15-11.04,0-4.33,1.09-8.18,3.26-11.56,2.17-3.38,5.03-5.99,8.58-7.86,3.55-1.86,7.3-2.79,11.27-2.79,2.36,0,4.59,.3,6.69,.91,2.1,.61,4.4,1.13,6.92,1.56,1.45,.35,2.9,.61,4.35,.78,1.45,.17,3.05,.26,4.8,.26,1.14,0,2.29-.07,3.43-.19,1.14-.13,2.1-.19,2.86-.19,1.22,0,1.83,.95,1.83,2.86,0,1.65-.5,3.2-1.49,4.68-.46,.61-.95,.91-1.49,.91h-3.09c-1.98,0-3.32,.35-4,1.04-.15,.17-.27,.37-.34,.58-.08,.22-.13,.69-.17,1.43-.04,.74-.06,2.1-.06,4.09,0,4.5-1.03,8.66-3.09,12.47-2.06,3.81-4.77,6.86-8.12,9.15-3.36,2.29-7.06,3.44-11.1,3.44Zm1.26-5.71c2.44,0,4.36-1.54,5.78-4.61,1.41-3.07,2.12-7.12,2.12-12.14,0-3.2-.36-5.99-1.09-8.38-.73-2.38-1.7-4.24-2.92-5.58-1.22-1.34-2.67-2.01-4.35-2.01-1.45,0-2.79,.69-4,2.08-1.22,1.39-2.19,3.23-2.92,5.52-.73,2.29-1.09,4.96-1.09,7.99,0,3.2,.38,6.1,1.14,8.7,.76,2.6,1.79,4.65,3.09,6.17,1.3,1.52,2.71,2.27,4.23,2.27Z"></path>
    <path class="cls-1" d="M643.18,129.07c-1.53,0-2.29-.57-2.29-1.7,0-1.05,.88-1.86,2.63-2.43,1.14-.4,2.13-.85,2.97-1.34,.84-.49,1.3-1.62,1.37-3.4V61.86c0-2.19-.27-4.09-.8-5.71-.53-1.62-1.76-2.63-3.66-3.04-.84-.16-1.26-.77-1.26-1.82s.38-1.66,1.14-1.82c1.75-.4,3.76-.99,6.01-1.76,2.25-.77,4.44-1.58,6.58-2.43,2.13-.85,3.77-1.48,4.92-1.88,.61-.24,1.1-.36,1.49-.36,.46,0,.76,.14,.92,.43,.15,.29,.23,.63,.23,1.03s-.06,.99-.17,1.76c-.11,.77-.21,1.7-.29,2.8-.08,1.09-.15,2.37-.23,3.83v28.08c0,.81,.04,1.54,.11,2.19,.08,.65,.27,1.09,.57,1.34,1.14-1.05,2.52-2.21,4.12-3.46,1.6-1.26,3.45-2.37,5.55-3.34,2.1-.97,4.44-1.46,7.04-1.46,4.04,0,7.44,1.52,10.18,4.56,2.75,3.04,4.12,7.27,4.12,12.7v26.5c0,1.7,.42,2.86,1.26,3.46,.84,.61,1.79,1.11,2.86,1.52,.84,.24,1.47,.55,1.89,.91,.42,.36,.63,.87,.63,1.52,0,1.14-.84,1.7-2.52,1.7-1.83,0-3.32-.06-4.46-.18-1.14-.12-2.23-.22-3.26-.3-1.03-.08-2.35-.12-3.95-.12s-2.97,.04-3.89,.12c-.92,.08-1.87,.18-2.86,.3-.99,.12-2.4,.18-4.23,.18s-2.86-.61-2.86-1.82c0-.65,.25-1.15,.74-1.52,.5-.36,1.05-.63,1.66-.79,.99-.4,1.91-.93,2.75-1.58,.84-.65,1.26-1.86,1.26-3.65v-23.94c0-1.78-.34-3.38-1.03-4.8-.69-1.42-1.58-2.55-2.69-3.4-1.11-.85-2.31-1.28-3.6-1.28-1.14,0-2.4,.2-3.77,.61-1.37,.41-2.71,1.09-4,2.07-.61,.49-1.01,1.03-1.2,1.64-.19,.61-.29,1.52-.29,2.73v26.62c0,1.62,.38,2.73,1.14,3.34,.76,.61,1.64,1.11,2.63,1.52,.69,.24,1.26,.55,1.72,.91s.69,.87,.69,1.52c0,1.22-.69,1.82-2.06,1.82-1.53,0-2.96-.06-4.29-.18-1.33-.12-2.59-.22-3.78-.3-1.18-.08-2.46-.12-3.83-.12-1.3,0-2.57,.04-3.83,.12-1.26,.08-2.54,.18-3.83,.3-1.3,.12-2.71,.18-4.23,.18Z"></path>
    <path class="cls-1" d="M731.85,129.07c-5.03,0-8.81-1.3-11.33-3.89-2.52-2.59-3.77-6.25-3.77-10.97v-26.71c0-.7-.25-1.2-.74-1.51-.5-.31-1.43-.5-2.8-.58h-1.49c-.53,0-.97-.44-1.32-1.34-.34-.89-.51-1.68-.51-2.38,0-.15,.06-.37,.17-.64,.11-.27,.29-.44,.52-.52,1.83-.7,3.79-1.76,5.89-3.19,2.1-1.43,4.12-2.96,6.06-4.59,1.94-1.63,3.53-2.98,4.75-4.06,.53-.39,.99-.73,1.37-1.05,.38-.31,.88-.46,1.49-.46,.69,0,1.18,.14,1.49,.41,.3,.27,.38,.91,.23,1.92l-.69,6.85c-.08,.93,.13,1.57,.63,1.92,.5,.35,1.2,.52,2.12,.52h13.61c.23,0,.46,.27,.69,.81,.23,.54,.34,1.05,.34,1.51,0,1.09-.15,2.13-.46,3.14-.31,1.01-.65,1.51-1.03,1.51h-10.64c-1.76,0-2.96,.21-3.6,.64-.65,.43-.97,1.18-.97,2.26v21.95c0,3.56,.67,6.21,2,7.95,1.33,1.74,3.11,2.61,5.32,2.61s3.83-.23,4.86-.7c1.03-.46,1.96-.85,2.8-1.16,.3-.15,.53-.23,.69-.23,.38,0,.69,.23,.92,.7s.34,1.01,.34,1.63c0,.46-.8,1.32-2.4,2.55-1.6,1.24-3.68,2.4-6.24,3.48-2.56,1.08-5.32,1.63-8.29,1.63Z"></path>
    <path class="cls-1" d="M793.06,129.07c-.76,0-1.36-.2-1.77-.59-.42-.39-.63-.85-.63-1.37,0-.61,.23-1.15,.69-1.63,.46-.48,1.03-.85,1.72-1.11,2.59-.78,4.44-1.69,5.55-2.74,1.11-1.04,1.66-2.91,1.66-5.61V56.32c0-1.91-.19-3.39-.57-4.43-.38-1.04-1.11-1.87-2.17-2.48-1.07-.61-2.63-1.17-4.69-1.7-1.6-.43-2.4-1.35-2.4-2.74,0-.61,.23-1.09,.69-1.43,.46-.35,.99-.52,1.6-.52,1.75,0,3.6,.05,5.55,.13,1.94,.09,3.85,.2,5.72,.33,1.87,.13,3.56,.2,5.09,.2s3.39-.04,5.38-.13c1.98-.09,4.02-.17,6.12-.26,2.1-.09,3.98-.13,5.66-.13,.69,0,1.2,.15,1.54,.46,.34,.31,.51,.76,.51,1.37,0,.87-.21,1.48-.63,1.83-.42,.35-1.01,.65-1.77,.91-3.13,.96-5.24,1.98-6.35,3.06-1.11,1.09-1.66,2.93-1.66,5.54v58.67c0,2.43,.47,4.17,1.43,5.22,.95,1.04,2.53,1.56,4.75,1.56h11.67c1.68,0,3.18-.33,4.52-.98,1.33-.65,2.53-1.5,3.6-2.54,1.3-1.39,2.44-2.98,3.43-4.76,.99-1.78,1.87-3.63,2.63-5.54,.76-1.74,1.35-2.87,1.77-3.39,.42-.52,.86-.78,1.32-.78,.61,0,1.03,.31,1.26,.91,.23,.61,.34,1.17,.34,1.7,0,.18-.08,.57-.23,1.17-.15,.61-.23,1.09-.23,1.43-.53,2.52-1.03,4.72-1.49,6.58-.46,1.87-.82,3.65-1.09,5.35-.27,1.69-.52,3.59-.74,5.67-.08,.61-.25,1.17-.52,1.69-.27,.52-.71,.78-1.31,.78-1.6,0-3.93-.04-6.98-.13-3.05-.09-6.46-.15-10.24-.2-3.77-.05-7.63-.11-11.55-.2-3.93-.09-7.57-.13-10.93-.13-1.6,0-3.43,.04-5.49,.13-2.06,.09-4.06,.2-6.01,.33-1.94,.13-3.53,.2-4.75,.2Z"></path>
    <path class="cls-1" d="M865.25,129.07c-.46,0-.88-.14-1.26-.42-.38-.28-.57-.66-.57-1.15,0-.64,.19-1.17,.57-1.57,.38-.4,.88-.68,1.49-.85,1.98-.48,3.38-1.03,4.18-1.63s1.2-1.55,1.2-2.84v-26.1c0-2.74-.4-4.69-1.2-5.86-.8-1.17-2.04-1.87-3.72-2.12-.46-.08-.8-.32-1.03-.73-.23-.4-.34-.89-.34-1.45,0-1.21,.42-1.89,1.26-2.05,3.96-.8,7.49-1.93,10.58-3.38,3.09-1.45,5.47-2.58,7.15-3.38,1.22-.64,1.98-.97,2.29-.97,.99,0,1.49,.48,1.49,1.45-.08,1.37-.25,3.08-.52,5.14s-.5,4.17-.69,6.34c-.19,2.18-.29,4.27-.29,6.28v26.71c0,1.13,.4,2.01,1.2,2.66,.8,.65,2.23,1.29,4.29,1.93,.61,.24,1.1,.52,1.49,.85,.38,.32,.57,.81,.57,1.45,0,1.05-.57,1.57-1.72,1.57-1.45,0-2.97-.04-4.58-.12-1.6-.08-3.15-.16-4.63-.24-1.49-.08-2.92-.12-4.29-.12-1.3,0-2.65,.04-4.06,.12-1.41,.08-2.86,.18-4.35,.3-1.49,.12-2.99,.18-4.52,.18Zm12.59-59.94c-2.37,0-4.44-.93-6.24-2.78-1.79-1.85-2.69-4.07-2.69-6.65,0-2.74,.9-5.03,2.69-6.89,1.79-1.85,3.87-2.78,6.24-2.78,2.67,0,4.88,.93,6.64,2.78,1.75,1.85,2.63,4.15,2.63,6.89,0,2.58-.88,4.79-2.63,6.65-1.76,1.85-3.97,2.78-6.64,2.78Z"></path>
    <path class="cls-1" d="M925.2,172.1c-7.48,0-13.29-1.32-17.45-3.96-4.16-2.64-6.24-6.26-6.24-10.84,0-2.6,.27-4.7,.8-6.3,.53-1.6,1.75-3.18,3.66-4.74,1.45-1.21,2.86-2.42,4.23-3.64,1.37-1.21,2.55-2.21,3.55-2.99l5.61,2.21c-2.37,1.56-4.22,3.25-5.55,5.06-1.33,1.82-2,3.94-2,6.36,0,3.55,1.31,6.49,3.95,8.83,2.63,2.34,5.93,3.51,9.9,3.51,5.26,0,9-1.17,11.21-3.51,1.37-1.56,2.48-3.31,3.32-5.26,.84-1.95,1.26-3.92,1.26-5.91,0-1.39-.42-2.51-1.26-3.38-.84-.87-2.35-1.6-4.52-2.21-2.17-.61-5.21-1.13-9.1-1.56-7.93-.87-13.58-2.55-16.93-5.06-3.36-2.51-5.03-5.84-5.03-10,0-.78,.21-1.58,.63-2.4,.42-.82,1.24-1.71,2.46-2.66,1.22-1.04,2.33-1.97,3.32-2.79,.99-.82,1.83-1.6,2.52-2.34,.69-.73,1.14-1.41,1.37-2.01l5.72,2.21c-1.53,.61-2.77,1.43-3.72,2.47-.95,1.04-1.43,1.95-1.43,2.73,0,.95,.5,1.73,1.49,2.34,.99,.61,2.67,1.1,5.03,1.49,2.36,.39,5.61,.76,9.72,1.1,8.24,.78,14.22,2.23,17.96,4.35,3.74,2.12,5.61,5.21,5.61,9.28,0,3.55-.88,7.08-2.63,10.58-1.76,3.51-4.08,6.71-6.98,9.61-2.9,2.9-6.12,5.19-9.67,6.88-3.55,1.69-7.15,2.53-10.81,2.53Zm.23-49.99c-3.36,0-6.65-.93-9.9-2.79-3.24-1.86-5.91-4.44-8.01-7.73-2.1-3.29-3.15-6.97-3.15-11.04,0-4.33,1.09-8.18,3.26-11.56,2.17-3.38,5.03-5.99,8.58-7.86,3.55-1.86,7.3-2.79,11.27-2.79,2.36,0,4.59,.3,6.69,.91,2.1,.61,4.4,1.13,6.92,1.56,1.45,.35,2.9,.61,4.35,.78,1.45,.17,3.05,.26,4.8,.26,1.14,0,2.29-.07,3.43-.19,1.14-.13,2.1-.19,2.86-.19,1.22,0,1.83,.95,1.83,2.86,0,1.65-.5,3.2-1.49,4.68-.46,.61-.95,.91-1.49,.91h-3.09c-1.98,0-3.32,.35-4,1.04-.15,.17-.27,.37-.34,.58-.08,.22-.13,.69-.17,1.43-.04,.74-.06,2.1-.06,4.09,0,4.5-1.03,8.66-3.09,12.47-2.06,3.81-4.77,6.86-8.12,9.15-3.36,2.29-7.06,3.44-11.1,3.44Zm1.26-5.71c2.44,0,4.36-1.54,5.78-4.61,1.41-3.07,2.12-7.12,2.12-12.14,0-3.2-.36-5.99-1.09-8.38-.73-2.38-1.7-4.24-2.92-5.58-1.22-1.34-2.67-2.01-4.35-2.01-1.45,0-2.79,.69-4,2.08-1.22,1.39-2.19,3.23-2.92,5.52-.73,2.29-1.09,4.96-1.09,7.99,0,3.2,.38,6.1,1.14,8.7,.76,2.6,1.79,4.65,3.09,6.17,1.3,1.52,2.71,2.27,4.23,2.27Z"></path>
    <path class="cls-1" d="M967.64,129.07c-1.53,0-2.29-.57-2.29-1.7,0-1.05,.88-1.86,2.63-2.43,1.14-.4,2.13-.85,2.97-1.34,.84-.49,1.3-1.62,1.37-3.4V61.86c0-2.19-.27-4.09-.8-5.71-.53-1.62-1.76-2.63-3.66-3.04-.84-.16-1.26-.77-1.26-1.82s.38-1.66,1.14-1.82c1.75-.4,3.76-.99,6.01-1.76,2.25-.77,4.44-1.58,6.58-2.43,2.13-.85,3.77-1.48,4.92-1.88,.61-.24,1.1-.36,1.49-.36,.46,0,.76,.14,.92,.43,.15,.29,.23,.63,.23,1.03s-.06,.99-.17,1.76c-.11,.77-.21,1.7-.29,2.8-.08,1.09-.15,2.37-.23,3.83v28.08c0,.81,.04,1.54,.11,2.19,.08,.65,.27,1.09,.57,1.34,1.14-1.05,2.52-2.21,4.12-3.46,1.6-1.26,3.45-2.37,5.55-3.34,2.1-.97,4.44-1.46,7.04-1.46,4.04,0,7.44,1.52,10.18,4.56,2.75,3.04,4.12,7.27,4.12,12.7v26.5c0,1.7,.42,2.86,1.26,3.46,.84,.61,1.79,1.11,2.86,1.52,.84,.24,1.47,.55,1.89,.91,.42,.36,.63,.87,.63,1.52,0,1.14-.84,1.7-2.52,1.7-1.83,0-3.32-.06-4.46-.18-1.14-.12-2.23-.22-3.26-.3-1.03-.08-2.35-.12-3.95-.12s-2.97,.04-3.89,.12c-.92,.08-1.87,.18-2.86,.3-.99,.12-2.4,.18-4.23,.18s-2.86-.61-2.86-1.82c0-.65,.25-1.15,.74-1.52,.5-.36,1.05-.63,1.66-.79,.99-.4,1.91-.93,2.75-1.58,.84-.65,1.26-1.86,1.26-3.65v-23.94c0-1.78-.34-3.38-1.03-4.8-.69-1.42-1.58-2.55-2.69-3.4-1.11-.85-2.31-1.28-3.6-1.28-1.14,0-2.4,.2-3.77,.61-1.37,.41-2.71,1.09-4,2.07-.61,.49-1.01,1.03-1.2,1.64-.19,.61-.29,1.52-.29,2.73v26.62c0,1.62,.38,2.73,1.14,3.34,.76,.61,1.64,1.11,2.63,1.52,.69,.24,1.26,.55,1.72,.91s.69,.87,.69,1.52c0,1.22-.69,1.82-2.06,1.82-1.53,0-2.96-.06-4.29-.18-1.33-.12-2.59-.22-3.78-.3-1.18-.08-2.46-.12-3.83-.12-1.3,0-2.57,.04-3.83,.12-1.26,.08-2.54,.18-3.83,.3-1.3,.12-2.71,.18-4.23,.18Z"></path>
    <path class="cls-1" d="M1056.31,129.07c-5.03,0-8.81-1.3-11.33-3.89-2.52-2.59-3.77-6.25-3.77-10.97v-26.71c0-.7-.25-1.2-.74-1.51-.5-.31-1.43-.5-2.8-.58h-1.49c-.53,0-.97-.44-1.32-1.34-.34-.89-.51-1.68-.51-2.38,0-.15,.06-.37,.17-.64,.11-.27,.29-.44,.52-.52,1.83-.7,3.79-1.76,5.89-3.19,2.1-1.43,4.12-2.96,6.06-4.59,1.94-1.63,3.53-2.98,4.75-4.06,.53-.39,.99-.73,1.37-1.05,.38-.31,.88-.46,1.49-.46,.69,0,1.18,.14,1.49,.41,.3,.27,.38,.91,.23,1.92l-.69,6.85c-.08,.93,.13,1.57,.63,1.92,.5,.35,1.2,.52,2.12,.52h13.61c.23,0,.46,.27,.69,.81,.23,.54,.34,1.05,.34,1.51,0,1.09-.15,2.13-.46,3.14-.31,1.01-.65,1.51-1.03,1.51h-10.64c-1.76,0-2.96,.21-3.6,.64-.65,.43-.97,1.18-.97,2.26v21.95c0,3.56,.67,6.21,2,7.95,1.33,1.74,3.11,2.61,5.32,2.61s3.83-.23,4.86-.7c1.03-.46,1.96-.85,2.8-1.16,.3-.15,.53-.23,.69-.23,.38,0,.69,.23,.92,.7s.34,1.01,.34,1.63c0,.46-.8,1.32-2.4,2.55-1.6,1.24-3.68,2.4-6.24,3.48-2.56,1.08-5.32,1.63-8.29,1.63Z"></path>
    <path class="cls-1" d="M1084.11,129.07c-.46,0-.88-.14-1.26-.42-.38-.28-.57-.66-.57-1.15,0-.64,.19-1.17,.57-1.57,.38-.4,.88-.68,1.49-.85,1.98-.48,3.38-1.03,4.18-1.63,.8-.6,1.2-1.55,1.2-2.84v-26.1c0-2.74-.4-4.69-1.2-5.86-.8-1.17-2.04-1.87-3.72-2.12-.46-.08-.8-.32-1.03-.73-.23-.4-.34-.89-.34-1.45,0-1.21,.42-1.89,1.26-2.05,3.96-.8,7.49-1.93,10.58-3.38,3.09-1.45,5.47-2.58,7.15-3.38,1.22-.64,1.98-.97,2.29-.97,.99,0,1.49,.48,1.49,1.45-.08,1.37-.25,3.08-.52,5.14s-.5,4.17-.69,6.34c-.19,2.18-.29,4.27-.29,6.28v26.71c0,1.13,.4,2.01,1.2,2.66,.8,.65,2.23,1.29,4.29,1.93,.61,.24,1.1,.52,1.49,.85,.38,.32,.57,.81,.57,1.45,0,1.05-.57,1.57-1.72,1.57-1.45,0-2.97-.04-4.58-.12-1.6-.08-3.15-.16-4.63-.24-1.49-.08-2.92-.12-4.29-.12-1.3,0-2.65,.04-4.06,.12-1.41,.08-2.86,.18-4.35,.3-1.49,.12-2.99,.18-4.52,.18Zm12.59-59.94c-2.37,0-4.44-.93-6.24-2.78-1.79-1.85-2.69-4.07-2.69-6.65,0-2.74,.9-5.03,2.69-6.89,1.79-1.85,3.87-2.78,6.24-2.78,2.67,0,4.88,.93,6.64,2.78,1.75,1.85,2.63,4.15,2.63,6.89,0,2.58-.88,4.79-2.63,6.65-1.76,1.85-3.97,2.78-6.64,2.78Z"></path>
    <path class="cls-1" d="M1124.04,129.07c-.53,0-1.05-.14-1.54-.41-.5-.27-.74-.68-.74-1.23,0-.62,.27-1.11,.8-1.46,.53-.35,1.14-.64,1.83-.88,1.14-.39,2.15-.84,3.03-1.34,.88-.51,1.32-1.54,1.32-3.09v-26.74c0-1.71-.25-3.15-.74-4.32-.5-1.17-1.43-1.91-2.8-2.22-.31-.08-.59-.27-.86-.58-.27-.31-.4-.82-.4-1.52,0-1.09,.38-1.75,1.14-1.98,2.59-.62,5.43-1.46,8.52-2.51s5.74-2.16,7.95-3.33c.3-.16,.65-.35,1.03-.58,.38-.23,.72-.35,1.03-.35,.46,0,.74,.14,.86,.41,.11,.27,.17,.6,.17,.99,0,.62-.1,1.62-.29,2.98-.19,1.36-.29,2.59-.29,3.68,0,.31,.02,.66,.06,1.05,.04,.39,.09,.62,.17,.7,2.59-2.57,5.22-4.55,7.89-5.96,2.67-1.4,5.76-2.1,9.27-2.1,3.96,0,7.3,1.5,10.01,4.5,2.71,3,4.06,7.06,4.06,12.2v25.69c0,1.56,.44,2.59,1.32,3.09,.88,.51,1.89,.95,3.03,1.34,.61,.23,1.14,.53,1.6,.88s.69,.84,.69,1.46c0,.55-.21,.95-.63,1.23-.42,.27-.86,.41-1.32,.41-1.53,0-2.96-.06-4.29-.18-1.34-.12-2.63-.21-3.89-.29-1.26-.08-2.57-.12-3.95-.12-1.3,0-2.59,.04-3.89,.12-1.3,.08-2.59,.18-3.89,.29-1.3,.12-2.71,.18-4.23,.18-.46,0-.9-.14-1.32-.41-.42-.27-.63-.68-.63-1.23,0-.62,.23-1.11,.69-1.46s.99-.64,1.6-.88c1.14-.39,2.1-.84,2.86-1.34,.76-.51,1.14-1.54,1.14-3.09v-23.24c0-2.96-.67-5.27-2-6.95-1.33-1.67-3.11-2.55-5.32-2.63-1.68,0-3.17,.27-4.46,.82-1.3,.55-2.63,1.28-4,2.22-.31,.31-.53,.66-.69,1.05-.15,.39-.23,.78-.23,1.17v27.56c0,1.56,.42,2.59,1.26,3.09,.84,.51,1.79,.95,2.86,1.34,1.52,.47,2.29,1.25,2.29,2.34,0,.47-.19,.86-.57,1.17-.38,.31-.84,.47-1.37,.47-1.53,0-2.94-.06-4.23-.18-1.3-.12-2.52-.21-3.66-.29-1.14-.08-2.4-.12-3.78-.12-1.3,0-2.61,.04-3.95,.12-1.34,.08-2.71,.18-4.12,.29-1.41,.12-2.88,.18-4.41,.18Z"></path>
    <path class="cls-1" d="M1214.54,172.1c-7.48,0-13.29-1.32-17.45-3.96-4.16-2.64-6.24-6.26-6.24-10.84,0-2.6,.27-4.7,.8-6.3,.53-1.6,1.75-3.18,3.66-4.74,1.45-1.21,2.86-2.42,4.23-3.64,1.37-1.21,2.55-2.21,3.55-2.99l5.61,2.21c-2.37,1.56-4.22,3.25-5.55,5.06-1.33,1.82-2,3.94-2,6.36,0,3.55,1.31,6.49,3.95,8.83s5.93,3.51,9.9,3.51c5.26,0,9-1.17,11.21-3.51,1.37-1.56,2.48-3.31,3.32-5.26,.84-1.95,1.26-3.92,1.26-5.91,0-1.39-.42-2.51-1.26-3.38-.84-.87-2.35-1.6-4.52-2.21-2.17-.61-5.21-1.13-9.1-1.56-7.93-.87-13.58-2.55-16.93-5.06-3.36-2.51-5.03-5.84-5.03-10,0-.78,.21-1.58,.63-2.4,.42-.82,1.24-1.71,2.46-2.66,1.22-1.04,2.33-1.97,3.32-2.79,.99-.82,1.83-1.6,2.52-2.34,.69-.73,1.14-1.41,1.37-2.01l5.72,2.21c-1.53,.61-2.77,1.43-3.72,2.47-.95,1.04-1.43,1.95-1.43,2.73,0,.95,.5,1.73,1.49,2.34,.99,.61,2.67,1.1,5.03,1.49,2.36,.39,5.61,.76,9.72,1.1,8.24,.78,14.22,2.23,17.96,4.35,3.74,2.12,5.61,5.21,5.61,9.28,0,3.55-.88,7.08-2.63,10.58-1.76,3.51-4.08,6.71-6.98,9.61-2.9,2.9-6.12,5.19-9.67,6.88-3.55,1.69-7.15,2.53-10.81,2.53Zm.23-49.99c-3.36,0-6.65-.93-9.9-2.79-3.24-1.86-5.91-4.44-8.01-7.73-2.1-3.29-3.15-6.97-3.15-11.04,0-4.33,1.09-8.18,3.26-11.56,2.17-3.38,5.03-5.99,8.58-7.86,3.55-1.86,7.3-2.79,11.27-2.79,2.36,0,4.59,.3,6.69,.91,2.1,.61,4.4,1.13,6.92,1.56,1.45,.35,2.9,.61,4.35,.78,1.45,.17,3.05,.26,4.8,.26,1.14,0,2.29-.07,3.43-.19,1.14-.13,2.1-.19,2.86-.19,1.22,0,1.83,.95,1.83,2.86,0,1.65-.5,3.2-1.49,4.68-.46,.61-.95,.91-1.49,.91h-3.09c-1.98,0-3.32,.35-4,1.04-.15,.17-.27,.37-.34,.58-.08,.22-.13,.69-.17,1.43-.04,.74-.06,2.1-.06,4.09,0,4.5-1.03,8.66-3.09,12.47-2.06,3.81-4.77,6.86-8.12,9.15-3.36,2.29-7.06,3.44-11.1,3.44Zm1.26-5.71c2.44,0,4.36-1.54,5.78-4.61,1.41-3.07,2.12-7.12,2.12-12.14,0-3.2-.36-5.99-1.09-8.38-.73-2.38-1.7-4.24-2.92-5.58-1.22-1.34-2.67-2.01-4.35-2.01-1.45,0-2.79,.69-4,2.08-1.22,1.39-2.19,3.23-2.92,5.52-.73,2.29-1.09,4.96-1.09,7.99,0,3.2,.38,6.1,1.14,8.7,.76,2.6,1.79,4.65,3.09,6.17,1.3,1.52,2.71,2.27,4.23,2.27Z"></path>
  </g>
  <g>
    <path class="cls-1" d="M242.01,206.56v-30.12h3.18v27.36h16.87v2.75h-20.05Z"></path>
    <path class="cls-1" d="M277.85,206.78c-1.92,0-3.6-.36-5.03-1.08-1.43-.72-2.55-1.79-3.33-3.23-.79-1.43-1.18-3.23-1.18-5.38v-13.12h3.05v12.78c0,2.41,.6,4.22,1.79,5.44,1.19,1.22,2.86,1.83,5.01,1.83,1.58,0,2.95-.32,4.11-.97,1.16-.65,2.05-1.58,2.67-2.82,.62-1.23,.92-2.71,.92-4.43v-11.83h3.05v22.59h-2.93v-6.2l.47,1.12c-.72,1.66-1.83,2.96-3.33,3.89-1.51,.93-3.26,1.4-5.27,1.4Z"></path>
    <path class="cls-1" d="M296.14,206.56l9.55-12.39-.04,1.51-9.08-11.7h3.44l7.44,9.68-1.29-.04,7.44-9.64h3.36l-9.16,11.83,.04-1.63,9.64,12.39h-3.49l-7.87-10.33,1.2,.17-7.74,10.15h-3.44Z"></path>
    <path class="cls-1" d="M333.61,206.78c-1.92,0-3.6-.36-5.03-1.08-1.43-.72-2.55-1.79-3.33-3.23-.79-1.43-1.18-3.23-1.18-5.38v-13.12h3.05v12.78c0,2.41,.6,4.22,1.79,5.44,1.19,1.22,2.86,1.83,5.01,1.83,1.58,0,2.95-.32,4.11-.97,1.16-.65,2.05-1.58,2.67-2.82,.62-1.23,.92-2.71,.92-4.43v-11.83h3.05v22.59h-2.93v-6.2l.47,1.12c-.72,1.66-1.83,2.96-3.33,3.89-1.51,.93-3.26,1.4-5.27,1.4Z"></path>
    <path class="cls-1" d="M355.34,206.56v-22.59h2.93v6.15l-.3-1.08c.63-1.72,1.69-3.03,3.18-3.94,1.49-.9,3.34-1.36,5.55-1.36v2.97c-.11,0-.23,0-.34-.02-.11-.01-.23-.02-.34-.02-2.38,0-4.25,.72-5.59,2.17-1.35,1.45-2.02,3.51-2.02,6.17v11.53h-3.05Z"></path>
    <path class="cls-1" d="M375.56,215.12c-1.06,0-2.07-.17-3.03-.52-.96-.34-1.79-.86-2.47-1.55l1.42-2.28c.57,.54,1.2,.97,1.87,1.27,.67,.3,1.43,.45,2.26,.45,1,0,1.87-.28,2.6-.84,.73-.56,1.43-1.54,2.09-2.95l1.46-3.31,.34-.47,9.29-20.95h3.01l-11.32,25.3c-.63,1.46-1.33,2.62-2.09,3.49-.76,.86-1.59,1.47-2.47,1.83-.89,.36-1.88,.54-2.97,.54Zm6.02-7.92l-10.41-23.23h3.18l9.21,20.74-1.98,2.5Z"></path>
    <path class="cls-1" d="M414.93,206.56v-30.12h3.18v27.36h16.87v2.75h-20.05Z"></path>
    <path class="cls-1" d="M443.32,178.98c-.63,0-1.16-.22-1.59-.65-.43-.43-.65-.95-.65-1.55s.22-1.11,.65-1.53c.43-.42,.96-.62,1.59-.62s1.16,.2,1.59,.6c.43,.4,.65,.9,.65,1.51s-.21,1.16-.62,1.59c-.42,.43-.95,.65-1.61,.65Zm-1.55,27.58v-22.59h3.05v22.59h-3.05Z"></path>
    <path class="cls-1" d="M464.58,205.7c-2.15,0-4.09-.47-5.81-1.4-1.72-.93-3.08-2.23-4.07-3.89-.99-1.66-1.48-3.57-1.48-5.72s.49-4.05,1.48-5.7c.99-1.65,2.34-2.93,4.07-3.85,1.72-.92,3.66-1.38,5.81-1.38,2.01,0,3.81,.42,5.42,1.25,1.61,.83,2.88,2.06,3.83,3.7,.95,1.63,1.42,3.63,1.42,5.98s-.47,4.35-1.42,5.98c-.95,1.63-2.22,2.88-3.83,3.74-1.61,.86-3.41,1.29-5.42,1.29Zm.56,9.42c-2.07,0-4.04-.3-5.94-.9-1.89-.6-3.43-1.46-4.6-2.58l1.55-2.32c1.06,.95,2.37,1.7,3.94,2.26s3.22,.84,4.97,.84c2.87,0,4.98-.67,6.32-2,1.35-1.33,2.02-3.41,2.02-6.22v-5.64l.43-3.87-.3-3.87v-6.84h2.93v19.83c0,3.9-.95,6.76-2.86,8.58-1.91,1.82-4.73,2.73-8.45,2.73Zm-.26-12.13c1.66,0,3.14-.35,4.43-1.05,1.29-.7,2.31-1.68,3.05-2.93,.75-1.25,1.12-2.69,1.12-4.32s-.37-3.07-1.12-4.3c-.75-1.23-1.76-2.2-3.05-2.9-1.29-.7-2.77-1.05-4.43-1.05s-3.11,.35-4.41,1.05c-1.31,.7-2.32,1.67-3.05,2.9-.73,1.23-1.1,2.67-1.1,4.3s.37,3.08,1.1,4.32c.73,1.25,1.75,2.22,3.05,2.93,1.3,.7,2.77,1.05,4.41,1.05Z"></path>
    <path class="cls-1" d="M498.65,183.76c1.84,0,3.45,.35,4.84,1.05,1.39,.7,2.48,1.77,3.27,3.21,.79,1.43,1.18,3.24,1.18,5.42v13.12h-3.05v-12.82c0-2.38-.6-4.18-1.79-5.4-1.19-1.22-2.86-1.83-5.01-1.83-1.61,0-3.01,.32-4.2,.97-1.19,.65-2.11,1.58-2.75,2.8-.65,1.22-.97,2.69-.97,4.41v11.87h-3.05v-31.92h3.05v15.53l-.6-1.16c.72-1.63,1.86-2.92,3.44-3.85,1.58-.93,3.46-1.4,5.64-1.4Z"></path>
    <path class="cls-1" d="M514.83,186.51v-2.54h13.98v2.54h-13.98Zm10.67,20.26c-2.12,0-3.76-.57-4.9-1.72-1.15-1.15-1.72-2.77-1.72-4.86v-21.21h3.05v21.04c0,1.32,.34,2.34,1.01,3.05,.67,.72,1.64,1.08,2.9,1.08,1.35,0,2.47-.39,3.36-1.16l1.08,2.19c-.6,.55-1.33,.95-2.17,1.2s-1.71,.39-2.6,.39Z"></path>
    <path class="cls-1" d="M539.53,178.98c-.63,0-1.16-.22-1.59-.65-.43-.43-.65-.95-.65-1.55s.22-1.11,.65-1.53c.43-.42,.96-.62,1.59-.62s1.16,.2,1.59,.6c.43,.4,.65,.9,.65,1.51s-.21,1.16-.62,1.59c-.42,.43-.95,.65-1.61,.65Zm-1.55,27.58v-22.59h3.05v22.59h-3.05Z"></path>
    <path class="cls-1" d="M563.23,183.76c1.84,0,3.45,.35,4.84,1.05,1.39,.7,2.48,1.77,3.27,3.21,.79,1.43,1.18,3.24,1.18,5.42v13.12h-3.05v-12.82c0-2.38-.6-4.18-1.79-5.4-1.19-1.22-2.86-1.83-5.01-1.83-1.61,0-3.01,.32-4.2,.97-1.19,.65-2.11,1.58-2.75,2.8-.65,1.22-.97,2.69-.97,4.41v11.87h-3.05v-22.59h2.93v6.2l-.47-1.16c.72-1.63,1.86-2.92,3.44-3.85,1.58-.93,3.46-1.4,5.64-1.4Z"></path>
    <path class="cls-1" d="M592.02,205.7c-2.15,0-4.09-.47-5.81-1.4-1.72-.93-3.08-2.23-4.07-3.89-.99-1.66-1.48-3.57-1.48-5.72s.49-4.05,1.48-5.7c.99-1.65,2.34-2.93,4.07-3.85,1.72-.92,3.66-1.38,5.81-1.38,2.01,0,3.81,.42,5.42,1.25,1.61,.83,2.88,2.06,3.83,3.7,.95,1.63,1.42,3.63,1.42,5.98s-.47,4.35-1.42,5.98c-.95,1.63-2.22,2.88-3.83,3.74-1.61,.86-3.41,1.29-5.42,1.29Zm.56,9.42c-2.07,0-4.04-.3-5.94-.9-1.89-.6-3.43-1.46-4.6-2.58l1.55-2.32c1.06,.95,2.37,1.7,3.94,2.26,1.56,.56,3.22,.84,4.97,.84,2.87,0,4.98-.67,6.32-2,1.35-1.33,2.02-3.41,2.02-6.22v-5.64l.43-3.87-.3-3.87v-6.84h2.93v19.83c0,3.9-.95,6.76-2.86,8.58-1.91,1.82-4.73,2.73-8.45,2.73Zm-.26-12.13c1.66,0,3.14-.35,4.43-1.05,1.29-.7,2.31-1.68,3.05-2.93,.75-1.25,1.12-2.69,1.12-4.32s-.37-3.07-1.12-4.3c-.75-1.23-1.76-2.2-3.05-2.9-1.29-.7-2.77-1.05-4.43-1.05s-3.11,.35-4.41,1.05c-1.31,.7-2.32,1.67-3.05,2.9-.73,1.23-1.1,2.67-1.1,4.3s.37,3.08,1.1,4.32c.73,1.25,1.75,2.22,3.05,2.93,1.3,.7,2.77,1.05,4.41,1.05Z"></path>
    <path class="cls-1" d="M635.94,206.82c-1.95,0-3.69-.32-5.21-.97-1.52-.65-2.72-1.54-3.59-2.69-.88-1.15-1.31-2.48-1.31-4,0-1.29,.29-2.47,.86-3.55,.57-1.08,1.5-2.14,2.78-3.18,1.28-1.05,2.97-2.14,5.1-3.29,1.81-1,3.22-1.87,4.24-2.6,1.02-.73,1.74-1.43,2.17-2.11,.43-.67,.65-1.4,.65-2.17,0-1.12-.38-2.02-1.14-2.71-.76-.69-1.84-1.03-3.25-1.03-1.52,0-2.7,.38-3.53,1.14-.83,.76-1.25,1.74-1.25,2.95,0,.6,.09,1.18,.28,1.72,.19,.55,.54,1.15,1.08,1.81,.53,.66,1.27,1.49,2.22,2.5l15.92,16.39-1.76,2.02-16.61-17.08c-1-1.06-1.8-1.99-2.39-2.78-.59-.79-1-1.54-1.23-2.26-.23-.72-.34-1.48-.34-2.28,0-1.29,.31-2.42,.92-3.38,.62-.96,1.5-1.71,2.65-2.24,1.15-.53,2.5-.8,4.04-.8,1.4,0,2.63,.24,3.68,.71s1.86,1.15,2.45,2.04c.59,.89,.88,1.96,.88,3.23,0,1.09-.27,2.11-.8,3.05-.53,.95-1.4,1.87-2.6,2.78-1.21,.9-2.84,1.91-4.9,3.03-1.81,1-3.23,1.92-4.28,2.75-1.05,.83-1.79,1.64-2.22,2.43-.43,.79-.65,1.66-.65,2.6,0,1.09,.31,2.04,.92,2.86,.62,.82,1.48,1.45,2.58,1.89,1.1,.45,2.37,.67,3.81,.67,2.01,0,3.8-.42,5.38-1.25,1.58-.83,2.9-2.09,3.98-3.79,1.08-1.69,1.86-3.81,2.34-6.37l2.45,.77c-.55,2.87-1.48,5.28-2.8,7.23-1.32,1.95-2.95,3.43-4.9,4.43-1.95,1-4.16,1.51-6.63,1.51Z"></path>
    <path class="cls-1" d="M686.07,206.82c-2.27,0-4.36-.38-6.28-1.14-1.92-.76-3.59-1.83-4.99-3.21-1.41-1.38-2.5-3-3.29-4.86-.79-1.86-1.18-3.9-1.18-6.11s.39-4.24,1.18-6.11c.79-1.86,1.89-3.49,3.31-4.86,1.42-1.38,3.09-2.45,5.01-3.21,1.92-.76,4.02-1.14,6.28-1.14s4.23,.37,6.15,1.1c1.92,.73,3.54,1.83,4.86,3.29l-2.02,2.02c-1.23-1.26-2.6-2.17-4.09-2.73-1.49-.56-3.1-.84-4.82-.84-1.81,0-3.48,.31-5.03,.92-1.55,.62-2.9,1.49-4.04,2.62-1.15,1.13-2.04,2.45-2.69,3.96-.65,1.51-.97,3.16-.97,4.97s.32,3.46,.97,4.97c.65,1.51,1.54,2.83,2.69,3.96,1.15,1.13,2.5,2.01,4.04,2.62,1.55,.62,3.23,.93,5.03,.93s3.33-.29,4.82-.86c1.49-.57,2.85-1.49,4.09-2.75l2.02,2.02c-1.32,1.46-2.94,2.57-4.86,3.31-1.92,.75-3.99,1.12-6.2,1.12Z"></path>
    <path class="cls-1" d="M705.43,206.56v-22.59h2.93v6.15l-.3-1.08c.63-1.72,1.69-3.03,3.18-3.94,1.49-.9,3.34-1.36,5.55-1.36v2.97c-.11,0-.23,0-.34-.02-.11-.01-.23-.02-.34-.02-2.38,0-4.25,.72-5.59,2.17-1.35,1.45-2.02,3.51-2.02,6.17v11.53h-3.05Z"></path>
    <path class="cls-1" d="M725.65,215.12c-1.06,0-2.07-.17-3.03-.52-.96-.34-1.79-.86-2.47-1.55l1.42-2.28c.57,.54,1.2,.97,1.87,1.27,.67,.3,1.43,.45,2.26,.45,1,0,1.87-.28,2.6-.84,.73-.56,1.43-1.54,2.09-2.95l1.46-3.31,.34-.47,9.29-20.95h3.01l-11.32,25.3c-.63,1.46-1.33,2.62-2.09,3.49-.76,.86-1.59,1.47-2.47,1.83-.89,.36-1.88,.54-2.97,.54Zm6.02-7.92l-10.41-23.23h3.18l9.21,20.74-1.98,2.5Z"></path>
    <path class="cls-1" d="M756.75,206.78c-1.87,0-3.63-.26-5.29-.8-1.66-.53-2.97-1.2-3.92-2l1.38-2.41c.92,.69,2.09,1.28,3.53,1.79,1.43,.5,2.94,.75,4.52,.75,2.15,0,3.7-.34,4.65-1.01,.95-.67,1.42-1.57,1.42-2.69,0-.83-.27-1.48-.8-1.96-.53-.47-1.23-.83-2.09-1.08-.86-.24-1.82-.45-2.88-.62-1.06-.17-2.12-.37-3.16-.6-1.05-.23-2-.57-2.86-1.01-.86-.44-1.56-1.05-2.09-1.83-.53-.77-.8-1.81-.8-3.1s.34-2.34,1.03-3.31c.69-.97,1.7-1.74,3.03-2.3,1.33-.56,2.96-.84,4.88-.84,1.46,0,2.93,.19,4.39,.58,1.46,.39,2.67,.9,3.61,1.53l-1.33,2.45c-1-.69-2.08-1.18-3.23-1.48-1.15-.3-2.3-.45-3.44-.45-2.04,0-3.54,.35-4.5,1.05-.96,.7-1.44,1.6-1.44,2.69,0,.86,.26,1.53,.8,2.02,.53,.49,1.23,.87,2.11,1.14,.87,.27,1.84,.49,2.88,.67,1.05,.17,2.09,.38,3.14,.62,1.05,.24,2.01,.57,2.88,.99,.87,.42,1.58,1,2.11,1.76,.53,.76,.8,1.76,.8,2.99,0,1.32-.37,2.46-1.1,3.42-.73,.96-1.79,1.71-3.18,2.24-1.39,.53-3.08,.8-5.06,.8Z"></path>
    <path class="cls-1" d="M770.31,186.51v-2.54h13.98v2.54h-13.98Zm10.67,20.26c-2.12,0-3.76-.57-4.9-1.72-1.15-1.15-1.72-2.77-1.72-4.86v-21.21h3.05v21.04c0,1.32,.34,2.34,1.01,3.05,.67,.72,1.64,1.08,2.9,1.08,1.35,0,2.47-.39,3.36-1.16l1.08,2.19c-.6,.55-1.33,.95-2.17,1.2s-1.71,.39-2.6,.39Z"></path>
    <path class="cls-1" d="M799.82,206.78c-1.69,0-3.16-.28-4.41-.84-1.25-.56-2.2-1.33-2.86-2.32-.66-.99-.99-2.13-.99-3.42,0-1.18,.28-2.24,.84-3.21,.56-.96,1.48-1.74,2.75-2.32,1.28-.59,2.99-.88,5.14-.88h7.79v2.28h-7.7c-2.18,0-3.69,.39-4.54,1.16-.85,.77-1.27,1.74-1.27,2.88,0,1.29,.5,2.32,1.51,3.1,1,.77,2.41,1.16,4.22,1.16s3.21-.39,4.45-1.18c1.25-.79,2.16-1.93,2.73-3.42l.69,2.11c-.57,1.49-1.57,2.68-2.99,3.57-1.42,.89-3.21,1.33-5.36,1.33Zm7.79-.22v-4.99l-.13-.82v-8.35c0-1.92-.54-3.4-1.61-4.43-1.08-1.03-2.68-1.55-4.8-1.55-1.46,0-2.85,.24-4.17,.73-1.32,.49-2.44,1.13-3.36,1.94l-1.38-2.28c1.15-.97,2.52-1.73,4.13-2.26,1.61-.53,3.3-.8,5.08-.8,2.93,0,5.18,.72,6.78,2.17,1.59,1.45,2.39,3.65,2.39,6.6v14.03h-2.93Z"></path>
    <path class="cls-1" d="M820.99,206.56v-31.92h3.05v31.92h-3.05Z"></path>
    <path class="cls-1" d="M861.86,206.82c-2.27,0-4.36-.38-6.28-1.14-1.92-.76-3.59-1.83-4.99-3.21-1.41-1.38-2.5-3-3.29-4.86-.79-1.86-1.18-3.9-1.18-6.11s.39-4.24,1.18-6.11c.79-1.86,1.89-3.49,3.31-4.86,1.42-1.38,3.09-2.45,5.01-3.21,1.92-.76,4.02-1.14,6.28-1.14s4.23,.37,6.15,1.1c1.92,.73,3.54,1.83,4.86,3.29l-2.02,2.02c-1.23-1.26-2.6-2.17-4.09-2.73-1.49-.56-3.1-.84-4.82-.84-1.81,0-3.48,.31-5.03,.92-1.55,.62-2.9,1.49-4.04,2.62-1.15,1.13-2.04,2.45-2.69,3.96-.65,1.51-.97,3.16-.97,4.97s.32,3.46,.97,4.97c.65,1.51,1.54,2.83,2.69,3.96,1.15,1.13,2.5,2.01,4.04,2.62,1.55,.62,3.23,.93,5.03,.93s3.33-.29,4.82-.86c1.49-.57,2.85-1.49,4.09-2.75l2.02,2.02c-1.32,1.46-2.94,2.57-4.86,3.31-1.92,.75-3.99,1.12-6.2,1.12Z"></path>
    <path class="cls-1" d="M892.75,183.76c1.84,0,3.45,.35,4.84,1.05,1.39,.7,2.48,1.77,3.27,3.21,.79,1.43,1.18,3.24,1.18,5.42v13.12h-3.05v-12.82c0-2.38-.6-4.18-1.79-5.4-1.19-1.22-2.86-1.83-5.01-1.83-1.61,0-3.01,.32-4.2,.97-1.19,.65-2.11,1.58-2.75,2.8-.65,1.22-.97,2.69-.97,4.41v11.87h-3.05v-31.92h3.05v15.53l-.6-1.16c.72-1.63,1.86-2.92,3.44-3.85,1.58-.93,3.46-1.4,5.64-1.4Z"></path>
    <path class="cls-1" d="M918.83,206.78c-1.69,0-3.16-.28-4.41-.84-1.25-.56-2.2-1.33-2.86-2.32-.66-.99-.99-2.13-.99-3.42,0-1.18,.28-2.24,.84-3.21,.56-.96,1.48-1.74,2.75-2.32,1.28-.59,2.99-.88,5.14-.88h7.79v2.28h-7.7c-2.18,0-3.69,.39-4.54,1.16-.85,.77-1.27,1.74-1.27,2.88,0,1.29,.5,2.32,1.51,3.1,1,.77,2.41,1.16,4.22,1.16s3.21-.39,4.45-1.18c1.25-.79,2.16-1.93,2.73-3.42l.69,2.11c-.57,1.49-1.57,2.68-2.99,3.57-1.42,.89-3.21,1.33-5.36,1.33Zm7.79-.22v-4.99l-.13-.82v-8.35c0-1.92-.54-3.4-1.61-4.43-1.08-1.03-2.68-1.55-4.8-1.55-1.46,0-2.85,.24-4.17,.73-1.32,.49-2.44,1.13-3.36,1.94l-1.38-2.28c1.15-.97,2.52-1.73,4.13-2.26,1.61-.53,3.3-.8,5.08-.8,2.93,0,5.18,.72,6.78,2.17,1.59,1.45,2.39,3.65,2.39,6.6v14.03h-2.93Z"></path>
    <path class="cls-1" d="M951.52,183.76c1.84,0,3.45,.35,4.84,1.05,1.39,.7,2.48,1.77,3.27,3.21,.79,1.43,1.18,3.24,1.18,5.42v13.12h-3.05v-12.82c0-2.38-.6-4.18-1.79-5.4-1.19-1.22-2.86-1.83-5.01-1.83-1.61,0-3.01,.32-4.2,.97-1.19,.65-2.11,1.58-2.75,2.8-.65,1.22-.97,2.69-.97,4.41v11.87h-3.05v-22.59h2.93v6.2l-.47-1.16c.72-1.63,1.86-2.92,3.44-3.85,1.58-.93,3.46-1.4,5.64-1.4Z"></path>
    <path class="cls-1" d="M980.22,206.78c-2.15,0-4.08-.49-5.79-1.46-1.71-.97-3.05-2.33-4.02-4.07-.98-1.73-1.46-3.74-1.46-6s.49-4.3,1.46-6.02,2.32-3.06,4.02-4.02c1.71-.96,3.64-1.44,5.79-1.44,1.98,0,3.75,.45,5.31,1.33,1.56,.89,2.81,2.19,3.74,3.89,.93,1.71,1.4,3.79,1.4,6.26s-.46,4.52-1.38,6.24c-.92,1.72-2.16,3.03-3.72,3.94-1.56,.9-3.35,1.36-5.36,1.36Zm.22-2.71c1.61,0,3.05-.37,4.32-1.1,1.28-.73,2.28-1.76,3.01-3.1,.73-1.33,1.1-2.88,1.1-4.63s-.37-3.33-1.1-4.65c-.73-1.32-1.74-2.35-3.01-3.08-1.28-.73-2.72-1.1-4.32-1.1s-3,.37-4.26,1.1c-1.26,.73-2.27,1.76-3.01,3.08-.75,1.32-1.12,2.87-1.12,4.65s.37,3.29,1.12,4.63c.75,1.33,1.75,2.37,3.01,3.1,1.26,.73,2.68,1.1,4.26,1.1Zm8.52,2.5v-6.8l.3-4.56-.43-4.56v-16h3.05v31.92h-2.93Z"></path>
    <path class="cls-1" d="M1012.15,206.78c-2.35,0-4.42-.49-6.2-1.48-1.78-.99-3.17-2.35-4.17-4.09-1-1.74-1.51-3.72-1.51-5.96s.48-4.22,1.44-5.94c.96-1.72,2.28-3.08,3.96-4.07,1.68-.99,3.56-1.48,5.66-1.48s4.01,.48,5.66,1.44c1.65,.96,2.95,2.31,3.89,4.04,.95,1.74,1.42,3.74,1.42,6,0,.14,0,.29-.02,.45-.01,.16-.02,.32-.02,.49h-19.66v-2.28h18.03l-1.21,.9c0-1.64-.35-3.09-1.05-4.37-.7-1.28-1.66-2.27-2.86-2.99-1.2-.72-2.6-1.08-4.17-1.08s-2.94,.36-4.17,1.08c-1.23,.72-2.19,1.72-2.88,3.01-.69,1.29-1.03,2.77-1.03,4.43v.47c0,1.72,.38,3.23,1.14,4.54,.76,1.31,1.82,2.32,3.18,3.05,1.36,.73,2.92,1.1,4.67,1.1,1.38,0,2.66-.24,3.85-.73,1.19-.49,2.22-1.23,3.08-2.24l1.72,1.98c-1,1.2-2.26,2.12-3.76,2.75-1.51,.63-3.16,.95-4.97,.95Z"></path>
    <path class="cls-1" d="M1030.69,206.56v-31.92h3.05v31.92h-3.05Z"></path>
    <path class="cls-1" d="M1045.96,178.98c-.63,0-1.16-.22-1.59-.65-.43-.43-.65-.95-.65-1.55s.22-1.11,.65-1.53c.43-.42,.96-.62,1.59-.62s1.16,.2,1.59,.6c.43,.4,.65,.9,.65,1.51s-.21,1.16-.62,1.59c-.42,.43-.95,.65-1.61,.65Zm-1.55,27.58v-22.59h3.05v22.59h-3.05Z"></path>
    <path class="cls-1" d="M1067.73,206.78c-2.35,0-4.42-.49-6.2-1.48-1.78-.99-3.17-2.35-4.17-4.09-1-1.74-1.51-3.72-1.51-5.96s.48-4.22,1.44-5.94c.96-1.72,2.28-3.08,3.96-4.07,1.68-.99,3.56-1.48,5.66-1.48s4.01,.48,5.66,1.44c1.65,.96,2.95,2.31,3.89,4.04,.95,1.74,1.42,3.74,1.42,6,0,.14,0,.29-.02,.45-.01,.16-.02,.32-.02,.49h-19.66v-2.28h18.03l-1.21,.9c0-1.64-.35-3.09-1.05-4.37-.7-1.28-1.66-2.27-2.86-2.99-1.2-.72-2.6-1.08-4.17-1.08s-2.94,.36-4.17,1.08c-1.23,.72-2.19,1.72-2.88,3.01-.69,1.29-1.03,2.77-1.03,4.43v.47c0,1.72,.38,3.23,1.14,4.54,.76,1.31,1.82,2.32,3.18,3.05,1.36,.73,2.92,1.1,4.67,1.1,1.38,0,2.66-.24,3.85-.73,1.19-.49,2.22-1.23,3.08-2.24l1.72,1.98c-1,1.2-2.26,2.12-3.76,2.75-1.51,.63-3.16,.95-4.97,.95Z"></path>
    <path class="cls-1" d="M1086.28,206.56v-22.59h2.93v6.15l-.3-1.08c.63-1.72,1.69-3.03,3.18-3.94,1.49-.9,3.34-1.36,5.55-1.36v2.97c-.11,0-.23,0-.34-.02-.11-.01-.23-.02-.34-.02-2.38,0-4.25,.72-5.59,2.17-1.35,1.45-2.02,3.51-2.02,6.17v11.53h-3.05Z"></path>
    <path class="cls-1" d="M1111.66,206.78c-1.87,0-3.63-.26-5.29-.8-1.66-.53-2.97-1.2-3.92-2l1.38-2.41c.92,.69,2.09,1.28,3.53,1.79,1.43,.5,2.94,.75,4.52,.75,2.15,0,3.7-.34,4.65-1.01,.95-.67,1.42-1.57,1.42-2.69,0-.83-.27-1.48-.8-1.96-.53-.47-1.23-.83-2.09-1.08-.86-.24-1.82-.45-2.88-.62-1.06-.17-2.12-.37-3.16-.6-1.05-.23-2-.57-2.86-1.01-.86-.44-1.56-1.05-2.09-1.83-.53-.77-.8-1.81-.8-3.1s.34-2.34,1.03-3.31c.69-.97,1.7-1.74,3.03-2.3,1.33-.56,2.96-.84,4.88-.84,1.46,0,2.93,.19,4.39,.58,1.46,.39,2.67,.9,3.61,1.53l-1.33,2.45c-1-.69-2.08-1.18-3.23-1.48-1.15-.3-2.3-.45-3.44-.45-2.04,0-3.54,.35-4.5,1.05-.96,.7-1.44,1.6-1.44,2.69,0,.86,.26,1.53,.8,2.02,.53,.49,1.23,.87,2.11,1.14,.87,.27,1.84,.49,2.88,.67,1.05,.17,2.09,.38,3.14,.62,1.05,.24,2.01,.57,2.88,.99,.87,.42,1.58,1,2.11,1.76,.53,.76,.8,1.76,.8,2.99,0,1.32-.37,2.46-1.1,3.42-.73,.96-1.79,1.71-3.18,2.24-1.39,.53-3.08,.8-5.06,.8Z"></path>
  </g>
</svg>
