<?xml version="1.0" encoding="UTF-8" standalone="no"?>
<svg xmlns="http://www.w3.org/2000/svg" xmlns:xlink="http://www.w3.org/1999/xlink" xmlns:serif="http://www.serif.com/" width="100%" height="100%" viewBox="0 0 1197 1221" version="1.1" xml:space="preserve" style="fill-rule:evenodd;clip-rule:evenodd;stroke-linejoin:round;stroke-miterlimit:2;">
  <rect id="Artboard1" x="0" y="0" width="1196.1" height="1220.34" style="fill:none;"></rect>
  <clipPath id="_clip1">
    <rect x="0" y="0" width="1196.1" height="1220.34"></rect>
  </clipPath>
  <g clip-path="url(#_clip1)">
    <g>
      <path d="M362.522,787.308l-0,159.081c-0,43.9 -35.641,79.541 -79.541,79.541l-202.937,0c-43.9,0 -79.541,-35.641 -79.541,-79.541l0,-159.081c0,-43.9 35.641,-79.541 79.541,-79.541l202.937,0c43.9,0 79.541,35.641 79.541,79.541Z" style="fill:#fff;"></path>
      <path d="M1196.61,787.308l0,159.081c0,43.9 -35.641,79.541 -79.54,79.541l-202.937,0c-43.9,0 -79.541,-35.641 -79.541,-79.541l-0,-159.081c-0,-43.9 35.641,-79.541 79.541,-79.541l202.937,0c43.899,0 79.54,35.641 79.54,79.541Z" style="fill:#fff;"></path>
      <path d="M778.411,921.349l-0,209.162c-0,49.951 -40.554,90.505 -90.505,90.505l-181.009,-0c-49.951,-0 -90.505,-40.554 -90.505,-90.505l0,-209.162c0,-49.951 40.554,-90.505 90.505,-90.505l181.009,0c49.951,0 90.505,40.554 90.505,90.505Z" style="fill:#fff;"></path>
      <path d="M362.522,349.241l-0,218.956c-0,49.951 -40.554,90.504 -90.505,90.504l-181.009,0c-49.951,0 -90.505,-40.553 -90.505,-90.504l0,-218.956c0,-49.95 40.554,-90.504 90.505,-90.504l181.009,-0c49.951,-0 90.505,40.554 90.505,90.504Z" style="fill:#fff;"></path>
      <path d="M1196.61,349.241l0,218.956c0,49.951 -40.553,90.504 -90.504,90.504l-181.01,0c-49.95,0 -90.504,-40.553 -90.504,-90.504l-0,-218.956c-0,-49.95 40.554,-90.504 90.504,-90.504l181.01,-0c49.951,-0 90.504,40.554 90.504,90.504Z" style="fill:#fff;"></path>
      <path d="M416.393,673.68l2.731,-583.023c0.233,-49.892 40.929,-90.209 90.821,-89.975l180.796,0.847c49.892,0.233 90.208,40.929 89.975,90.821l-2.731,583.023c-0.234,49.892 -40.929,90.209 -90.821,89.975l-180.796,-0.847c-49.892,-0.233 -90.208,-40.929 -89.975,-90.821Z" style="fill:#fff;"></path>
    </g>
  </g>
</svg>
